<?xml version="1.0" encoding="utf-8"?>
<!-- Generator: Adobe Illustrator 19.0.0, SVG Export Plug-In . SVG Version: 6.00 Build 0)  -->
<svg version="1.1" id="Layer_1" xmlns="http://www.w3.org/2000/svg" xmlns:xlink="http://www.w3.org/1999/xlink" x="0px" y="0px"
	 viewBox="-219 363 173 70.7" style="enable-background:new -219 363 173 70.7;" xml:space="preserve">
<style type="text/css">
	.st0{fill:#FFFFFF;}
</style>
<title>Group 4</title>
<desc>Created with Sketch.</desc>
<g id="Group-4">
	<path id="Combined-Shape" class="st0" d="M-194.9,403.7c0,0.1,0,0.1-0.1,0.2l-5.1,12.5c-0.2,0.4-0.5,0.6-0.9,0.6h-16.1
		c-0.6,0-1-0.4-1-1s0.4-1,1-1h15.5l4.8-11.8l1-6.6c0.1-0.7,0.9-1.1,1.5-0.7l3,1.9l1.6-5.7c0.1-0.2,0.1-0.3,0.3-0.5l5.1-4.7l6.8-15.1
		c0.3-0.7,1.2-0.8,1.7-0.2l6.8,8.7l4.3-1.3c0.4-0.1,0.9,0,1.1,0.4l8.3,11.7l2.6-4.1c0.3-0.5,1-0.6,1.5-0.2l1.7,1.5l10.3-8.5
		l7.1-10.7l3-5.6c0.3-0.5,0.9-0.7,1.4-0.4l9.5,6.4c0,0,3,3.2,8.9,9.5c0.1,0.1,0.1,0.1,0.1,0.2l3.1,5.5l7.2-8.3
		c0.2-0.3,0.6-0.4,0.9-0.3l2.4,0.4c0.4,0.1,0.7,0.4,0.8,0.8l1.4,7l6,9.7l3.5,2.6l7.3,4.6l2.3-0.5c0.3-0.1,0.6,0,0.8,0.2l3.4,2.6
		c0.1,0.1,0.2,0.2,0.3,0.3l5.7,11.1h16.9c0.6,0,1,0.4,1,1s-0.4,1-1,1h-17.6c-0.4,0-0.7-0.2-0.9-0.5l-5.9-11.4l-2.9-2.2l-2.3,0.5
		c-0.3,0.1-0.5,0-0.8-0.1l-7.7-4.9l-3.7-2.8c-0.1-0.1-0.2-0.2-0.2-0.3l-6.2-10c-0.1-0.1-0.1-0.2-0.1-0.3l-1.3-6.5l-1.1-0.2l-7.8,8.9
		c-0.5,0.5-1.3,0.4-1.6-0.2l-3.7-6.6l-8.6-9.2l-8.5-5.7l-2.5,4.7l-7.2,10.9c-0.1,0.1-0.1,0.2-0.2,0.2l-11,9.1
		c-0.4,0.3-0.9,0.3-1.3,0l-1.5-1.3l-2.8,4.4c-0.4,0.6-1.3,0.6-1.7,0l-8.7-12.3l-4.2,1.3c-0.4,0.1-0.8,0-1.1-0.3l-6.2-7.9l-6.2,13.7
		c-0.1,0.1-0.1,0.2-0.2,0.3l-5,4.6l-1.9,6.7c-0.2,0.6-0.9,0.9-1.5,0.6l-2.9-1.8L-194.9,403.7z"/>
	<path id="balz-rieser" class="st0" d="M-182.8,402.2v3.3c0,1-0.1,1.8-0.3,2.5c1.1-1.1,2.3-1.7,3.7-1.7c1.4,0,2.3,0.4,2.9,1.3
		c0.6,0.8,0.9,2.2,0.9,4.2c0,1.8-0.4,3.2-1.1,4.1s-2.1,1.4-4,1.4c-0.8,0-1.8-0.1-2.8-0.2c-1.1-0.1-1.9-0.3-2.5-0.6v-14.3H-182.8z
		 M-182.9,409.7v5.1c0.7,0.2,1.4,0.2,2.1,0.2c0.7,0,1.2-0.3,1.5-0.7s0.4-1.3,0.4-2.5c0-1.2-0.1-1.9-0.4-2.3
		c-0.2-0.4-0.7-0.6-1.5-0.6C-181.2,408.8-182,409.1-182.9,409.7z M-173.1,408.9l-0.3-2.1c1.9-0.3,3.7-0.5,5.4-0.5
		c1.4,0,2.5,0.3,3.1,0.9c0.7,0.6,1,1.6,1,3v6.9h-2.5l-0.3-1.6c-1,1.2-2.3,1.8-3.9,1.8c-1,0-1.8-0.3-2.5-0.8s-1-1.3-1-2.2v-1.1
		c0-0.8,0.3-1.5,0.8-1.9s1.3-0.7,2.4-0.7h3.7v-0.5c0-0.5-0.1-0.9-0.4-1.1s-0.7-0.3-1.3-0.3C-169.9,408.8-171.4,408.8-173.1,408.9z
		 M-170.9,413.5v0.4c0,0.7,0.4,1.1,1.2,1.1c0.8,0,1.7-0.3,2.6-1v-1.5h-2.8C-170.5,412.5-170.9,412.8-170.9,413.5z M-158.3,402.2
		v11.4c0,0.7,0.4,1.1,1.2,1.1h0.8l0.4,2.2c-0.5,0.3-1.4,0.4-2.5,0.4c-0.9,0-1.7-0.3-2.2-0.8c-0.5-0.5-0.8-1.2-0.8-2.1v-12.2H-158.3z
		 M-145.5,414.8v2.2h-9.4v-2.2l5.8-6h-5.7v-2.2h9.2v2.2l-5.7,6H-145.5z M-131.3,406.3l-0.3,2.9h-0.8c-0.7,0-1.8,0.2-3.2,0.7v7.1
		h-3.1v-10.4h2.4l0.3,1.5c1.4-1.2,2.8-1.8,4.2-1.8H-131.3z M-128.8,402h1.4c0.6,0,0.9,0.3,0.9,0.9v1.1c0,0.6-0.3,0.9-0.9,0.9h-1.4
		c-0.6,0-0.9-0.3-0.9-0.9v-1.1C-129.7,402.3-129.4,402-128.8,402z M-126.5,417.1h-3.1v-10.4h3.1V417.1z M-117.2,412.9h-3.8
		c0.1,0.8,0.3,1.3,0.7,1.5c0.4,0.3,1,0.4,1.8,0.4c1.1,0,2.4-0.1,3.9-0.2l0.3,1.9c-1.1,0.5-2.6,0.8-4.6,0.8c-2,0-3.4-0.4-4.2-1.3
		c-0.8-0.8-1.3-2.2-1.3-4.2c0-2,0.4-3.5,1.2-4.3c0.8-0.8,2.2-1.2,4.1-1.2c1.7,0,3,0.3,3.8,0.9c0.8,0.6,1.2,1.5,1.2,2.7
		c0,1-0.3,1.7-0.8,2.2C-115.3,412.6-116.1,412.9-117.2,412.9z M-121.1,411h3c0.4,0,0.6-0.1,0.8-0.3c0.1-0.2,0.2-0.5,0.2-0.8
		c0-0.5-0.1-0.8-0.4-1c-0.3-0.2-0.7-0.3-1.4-0.3c-0.8,0-1.4,0.2-1.7,0.5S-121,410-121.1,411z M-107.4,413.2l-2.6-0.7
		c-1-0.3-1.6-0.7-2-1.2c-0.4-0.5-0.6-1.2-0.6-2c0-1.1,0.3-1.9,1-2.3c0.7-0.5,1.8-0.7,3.4-0.7c1.9,0,3.5,0.2,4.8,0.4l-0.2,2
		c-1.8,0-3.1,0-4,0c-0.5,0-0.8,0-1,0c-0.2,0-0.4,0-0.6,0.1c-0.2,0-0.3,0.1-0.3,0.2c0,0.1-0.1,0.2-0.1,0.4c0,0.1,0,0.1,0,0.2
		c0,0.1,0,0.1,0.1,0.2s0.1,0.1,0.1,0.1c0,0,0.1,0.1,0.1,0.1c0.1,0,0.1,0.1,0.1,0.1c0,0,0.1,0,0.2,0.1c0.1,0,0.2,0.1,0.2,0.1
		c0,0,0.1,0,0.3,0.1s0.2,0.1,0.3,0.1l2.7,0.7c0.9,0.3,1.6,0.6,2,1.1s0.6,1.1,0.6,2c0,1.2-0.4,2.1-1.1,2.5c-0.7,0.4-2,0.7-3.7,0.7
		c-1.7,0-3.3-0.1-4.7-0.4l0.2-2c0.5,0,1.7,0,3.6,0c1.1,0,1.8,0,2.1-0.1c0.3-0.1,0.5-0.3,0.5-0.6c0-0.1,0-0.1,0-0.2
		c0-0.1,0-0.1-0.1-0.2s-0.1-0.1-0.1-0.1c0,0-0.1-0.1-0.1-0.1s-0.1-0.1-0.1-0.1c0,0-0.1,0-0.2-0.1s-0.2-0.1-0.2-0.1l-0.3-0.1
		C-107.2,413.2-107.3,413.2-107.4,413.2z M-94.2,412.9H-98c0.1,0.8,0.3,1.3,0.7,1.5s1,0.4,1.8,0.4c1.1,0,2.4-0.1,3.9-0.2l0.3,1.9
		c-1.1,0.5-2.6,0.8-4.6,0.8c-2,0-3.4-0.4-4.2-1.3c-0.8-0.8-1.3-2.2-1.3-4.2c0-2,0.4-3.5,1.2-4.3c0.8-0.8,2.2-1.2,4.1-1.2
		c1.7,0,3,0.3,3.8,0.9c0.8,0.6,1.2,1.5,1.2,2.7c0,1-0.3,1.7-0.8,2.2C-92.3,412.6-93.1,412.9-94.2,412.9z M-98,411h3
		c0.4,0,0.6-0.1,0.8-0.3c0.1-0.2,0.2-0.5,0.2-0.8c0-0.5-0.1-0.8-0.4-1c-0.3-0.2-0.7-0.3-1.4-0.3c-0.8,0-1.4,0.2-1.7,0.5
		S-98,410-98,411z M-81.5,406.3l-0.3,2.9h-0.8c-0.7,0-1.8,0.2-3.2,0.7v7.1H-89v-10.4h2.4l0.3,1.5c1.4-1.2,2.8-1.8,4.2-1.8H-81.5z"/>
</g>
<g>
	<path class="st0" d="M-185.1,420.3v2.9c0,0.7,0,1.2-0.1,1.5c1-0.9,1.9-1.4,2.8-1.4c0.9,0,1.6,0.3,2,0.9c0.4,0.6,0.6,1.5,0.6,2.9
		c0,1.3-0.2,2.3-0.7,2.9c-0.5,0.6-1.3,0.9-2.4,0.9c-1.1,0-2.2-0.2-3.2-0.5v-10.1H-185.1z M-185.1,425.4v4.4c0.7,0.2,1.5,0.3,2.3,0.3
		c0.8,0,1.3-0.2,1.6-0.7c0.3-0.4,0.5-1.2,0.5-2.3c0-1.1-0.1-1.9-0.4-2.3c-0.3-0.4-0.8-0.6-1.5-0.6c-0.4,0-0.8,0.1-1.1,0.3
		C-184.1,424.7-184.5,425-185.1,425.4z"/>
	<path class="st0" d="M-173.4,427.6h-3.6c0.1,0.9,0.3,1.6,0.7,2c0.4,0.4,1,0.5,1.8,0.5c0.7,0,1.6-0.1,2.5-0.2l0.1,0.6
		c-0.6,0.2-1.5,0.4-2.7,0.4c-1.2,0-2.1-0.3-2.6-0.9c-0.5-0.6-0.8-1.6-0.8-2.9c0-1.4,0.2-2.4,0.7-2.9c0.5-0.6,1.3-0.8,2.5-0.8
		c1,0,1.8,0.2,2.3,0.6c0.5,0.4,0.7,0.9,0.7,1.7C-171.7,426.9-172.3,427.6-173.4,427.6z M-177,426.8h3.4c0.6,0,0.9-0.4,0.9-1.2
		c0-0.5-0.2-0.9-0.5-1.1c-0.3-0.2-0.8-0.3-1.5-0.3c-0.8,0-1.4,0.2-1.8,0.6C-176.8,425.1-177,425.8-177,426.8z"/>
	<path class="st0" d="M-165.4,423.3l-0.1,0.9h-0.4c-0.4,0-0.8,0.1-1.3,0.3c-0.4,0.2-1,0.5-1.6,0.9v5.4h-0.9v-7.2h0.7l0.1,1.2
		c1.2-0.9,2.2-1.4,3.2-1.4H-165.4z"/>
	<path class="st0" d="M-157.4,424.1l-1.2,0.1c0.3,0.3,0.4,0.8,0.4,1.5c0,0.8-0.2,1.3-0.7,1.7c-0.5,0.4-1.2,0.5-2.3,0.5
		c-0.7,0-1.2-0.1-1.6-0.2c-0.1,0.2-0.2,0.4-0.3,0.6c0,0.2,0,0.4,0.2,0.6c0.1,0.2,0.4,0.3,0.7,0.3l2.8,0.5c0.7,0.1,1.1,0.3,1.4,0.6
		c0.3,0.3,0.4,0.8,0.4,1.4c0,0.8-0.2,1.4-0.7,1.7c-0.5,0.3-1.4,0.5-2.6,0.5c-1.3,0-2.1-0.2-2.6-0.5c-0.5-0.3-0.7-0.9-0.7-1.7
		c0-0.5,0.1-0.9,0.3-1.1c0.2-0.3,0.5-0.5,0.9-0.8c-0.4-0.3-0.6-0.6-0.6-1.1c0-0.5,0.2-0.8,0.6-1.1c-0.6-0.3-0.9-0.9-0.9-1.8
		c0-0.8,0.2-1.4,0.7-1.7c0.5-0.4,1.2-0.5,2.3-0.5c0.7,0,1.2,0.1,1.6,0.2h2.3L-157.4,424.1z M-162.6,429.9L-162.6,429.9
		c-0.4,0.3-0.6,0.5-0.7,0.7c-0.1,0.2-0.2,0.5-0.2,0.9c0,0.5,0.2,0.9,0.5,1.1s1,0.3,1.9,0.3c0.9,0,1.6-0.1,1.9-0.3s0.5-0.6,0.5-1.1
		c0-0.4-0.1-0.7-0.2-0.9c-0.2-0.2-0.5-0.3-1-0.4L-162.6,429.9z M-162.8,426.8c0.3,0.2,0.9,0.4,1.6,0.4c0.8,0,1.3-0.1,1.6-0.4
		c0.3-0.2,0.5-0.6,0.5-1.2c0-0.6-0.2-0.9-0.5-1.2c-0.3-0.2-0.9-0.4-1.6-0.4c-0.8,0-1.3,0.1-1.7,0.4c-0.3,0.2-0.5,0.6-0.5,1.2
		C-163.3,426.2-163.2,426.5-162.8,426.8z"/>
	<path class="st0" d="M-151.4,420.9h-1.5c-0.5,0-0.9,0.1-1.1,0.3c-0.2,0.2-0.3,0.6-0.3,1.1v1.3h2.4v0.7h-2.4v6.4h-0.9v-6.4h-1.3
		v-0.7l1.3-0.1v-1.4c0-0.7,0.2-1.2,0.5-1.5c0.3-0.3,0.8-0.5,1.5-0.5c0.7,0,1.4,0,1.9,0.1L-151.4,420.9z"/>
	<path class="st0" d="M-144.4,423.5v7.2h-0.7l-0.1-1.1c-1.1,0.9-2.2,1.3-3.2,1.3c-1.3,0-1.9-0.7-1.9-2v-5.4h0.9v5.1
		c0,0.5,0.1,0.8,0.3,1.1c0.2,0.2,0.5,0.3,1,0.3c0.4,0,0.8-0.1,1.2-0.3c0.4-0.2,0.9-0.5,1.5-0.9v-5.3H-144.4z M-148.4,421.9h-0.3
		c-0.2,0-0.3-0.1-0.3-0.3v-0.8c0-0.2,0.1-0.3,0.3-0.3h0.3c0.2,0,0.3,0.1,0.3,0.3v0.8C-148.2,421.8-148.3,421.9-148.4,421.9z
		 M-145.8,421.9h-0.3c-0.2,0-0.3-0.1-0.3-0.3v-0.8c0-0.2,0.1-0.3,0.3-0.3h0.3c0.2,0,0.3,0.1,0.3,0.3v0.8
		C-145.5,421.8-145.6,421.9-145.8,421.9z"/>
	<path class="st0" d="M-140.9,420.3v3c0,0.6,0,1-0.1,1.4c1.2-0.9,2.3-1.4,3.3-1.4c0.6,0,1.1,0.2,1.4,0.5s0.5,0.8,0.5,1.5v5.4h-0.9
		v-5.1c0-0.5-0.1-0.9-0.3-1.1c-0.2-0.2-0.5-0.3-1-0.3c-0.4,0-0.9,0.1-1.3,0.3c-0.4,0.2-1,0.5-1.7,1v5.3h-0.9v-10.4H-140.9z"/>
	<path class="st0" d="M-129,423.3l-0.1,0.9h-0.4c-0.4,0-0.8,0.1-1.3,0.3c-0.4,0.2-1,0.5-1.6,0.9v5.4h-0.9v-7.2h0.7l0.1,1.2
		c1.2-0.9,2.2-1.4,3.2-1.4H-129z"/>
	<path class="st0" d="M-123.5,427.6h-3.6c0.1,0.9,0.3,1.6,0.7,2c0.4,0.4,1,0.5,1.8,0.5c0.7,0,1.6-0.1,2.5-0.2l0.1,0.6
		c-0.6,0.2-1.5,0.4-2.7,0.4c-1.2,0-2.1-0.3-2.6-0.9c-0.5-0.6-0.8-1.6-0.8-2.9c0-1.4,0.2-2.4,0.7-2.9c0.5-0.6,1.3-0.8,2.5-0.8
		c1,0,1.8,0.2,2.3,0.6c0.5,0.4,0.7,0.9,0.7,1.7C-121.9,426.9-122.4,427.6-123.5,427.6z M-127.1,426.8h3.4c0.6,0,0.9-0.4,0.9-1.2
		c0-0.5-0.2-0.9-0.5-1.1c-0.3-0.2-0.8-0.3-1.5-0.3c-0.8,0-1.4,0.2-1.8,0.6S-127.1,425.8-127.1,426.8z"/>
	<path class="st0" d="M-115.5,423.3l-0.1,0.9h-0.4c-0.4,0-0.8,0.1-1.3,0.3s-1,0.5-1.6,0.9v5.4h-0.9v-7.2h0.7l0.1,1.2
		c1.2-0.9,2.2-1.4,3.2-1.4H-115.5z"/>
	<path class="st0" d="M-109.8,430.7h-1v-10.2h1V430.7z"/>
	<path class="st0" d="M-99.8,420.5l-3.2,9.9c-0.1,0.2-0.2,0.3-0.4,0.3h-1.1c-0.2,0-0.3-0.1-0.4-0.3l-3.2-9.9h1l2.6,8.3
		c0.1,0.2,0.2,0.6,0.3,1.1h0.4c0.1-0.5,0.2-0.9,0.3-1.1l2.6-8.3H-99.8z"/>
	<path class="st0" d="M-93.4,425.4L-93.4,425.4c0.7,0.1,1.3,0.4,1.6,0.8c0.3,0.4,0.5,1.1,0.5,1.9c0,1-0.2,1.7-0.7,2.1
		c-0.5,0.4-1.3,0.6-2.5,0.6c-1.6,0-2.8,0-3.6-0.1v-10.2c0.7-0.1,1.8-0.1,3.2-0.1c1.3,0,2.1,0.2,2.6,0.6s0.7,1.1,0.7,2.1
		c0,0.7-0.1,1.3-0.4,1.7C-92.3,425.1-92.8,425.3-93.4,425.4z M-97.2,425h2.4c0.8,0,1.4-0.1,1.7-0.4c0.3-0.3,0.5-0.8,0.5-1.5
		c0-0.8-0.2-1.3-0.5-1.5c-0.4-0.3-1-0.4-1.9-0.4c-1.1,0-1.8,0-2.2,0V425z M-97.2,425.8v4.2c0.8,0,1.7,0,2.5,0c0.9,0,1.5-0.1,1.9-0.4
		s0.5-0.8,0.5-1.6c0-0.9-0.2-1.4-0.5-1.7c-0.4-0.3-1-0.5-1.9-0.5H-97.2z"/>
	<path class="st0" d="M-81.8,420.5l-3.2,9.9c-0.1,0.2-0.2,0.3-0.4,0.3h-1.1c-0.2,0-0.3-0.1-0.4-0.3l-3.2-9.9h1l2.6,8.3
		c0.1,0.2,0.2,0.6,0.3,1.1h0.4c0.1-0.5,0.2-0.9,0.3-1.1l2.6-8.3H-81.8z"/>
</g>
</svg>
