<?xml version="1.0" encoding="UTF-8"?>
<svg width="173px" height="67px" viewBox="0 0 173 67" version="1.1" xmlns="http://www.w3.org/2000/svg" xmlns:xlink="http://www.w3.org/1999/xlink">
    <!-- Generator: Sketch 48.2 (47327) - http://www.bohemiancoding.com/sketch -->
    <title>Group 4</title>
    <desc>Created with Sketch.</desc>
    <defs></defs>
    <g id="Page-1-Copy-2" stroke="none" stroke-width="1" fill="none" fill-rule="evenodd">
        <g id="Group-4" fill="#FFFFFF">
            <path d="M24.1225014,40.6620317 C24.1104902,40.7376776 24.0898277,40.8116931 24.0609206,40.8826223 L18.9686877,53.377409 C18.8152563,53.7538829 18.4491798,54 18.042641,54 L1.89892056,54 C1.34663581,54 0.898920564,53.5522847 0.898920564,53 C0.898920564,52.4477153 1.34663581,52 1.89892056,52 L17.3703305,52 L22.1653231,40.2345503 L23.2079299,33.6683125 C23.320155,32.96153 24.1168046,32.5979659 24.7242477,32.9763162 L27.7665174,34.8712156 L29.3869497,29.1997026 C29.4373553,29.0232832 29.5353263,28.8641321 29.6701378,28.7396717 L34.7324181,24.0660857 L41.544803,9.01546794 C41.8552243,8.32965338 42.7835081,8.21979929 43.245433,8.81421358 L50.0034138,17.5105183 L54.2721254,16.2118836 C54.6843462,16.0864771 55.1305452,16.2392118 55.3794478,16.5909222 L63.6410135,28.2648736 L66.2191424,24.1338011 C66.5427384,23.6152861 67.2516738,23.5058081 67.7166097,23.9025534 L69.4581092,25.388633 L79.7142392,16.8738869 L86.8280523,6.17686752 L89.8052699,0.619394713 C90.083992,0.0991135239 90.7503441,-0.0678381797 91.2414501,0.259565831 L100.768546,6.61096333 C100.811185,6.63938932 103.780683,9.79846968 109.677039,16.0882044 C109.732431,16.1473725 109.780423,16.2130554 109.819961,16.2838073 L112.898251,21.7923263 L120.102319,13.5340047 C120.330476,13.2724587 120.677933,13.1479205 121.020287,13.2049795 L123.402061,13.6019419 C123.813802,13.6705654 124.139605,13.9877197 124.219277,14.3974661 L125.574043,21.3648335 L131.546557,31.0903556 L134.999791,33.7097574 L142.279949,38.3323924 L144.605415,37.8142693 C144.892156,37.7503822 145.192485,37.8158109 145.426666,37.9931845 L148.850069,40.5861425 C148.969854,40.6768704 149.067653,40.7934271 149.136196,40.9271502 L154.811864,52 L171.753441,52 C172.305726,52 172.753441,52.4477153 172.753441,53 C172.753441,53.5522847 172.305726,54 171.753441,54 L154.200725,54 C153.825556,54 153.48195,53.7900088 153.310819,53.4561438 L147.460521,42.0426029 L144.588301,39.8671227 L142.310845,40.3745489 C142.052126,40.4321926 141.781105,40.3847615 141.557339,40.2426787 L133.860012,35.3511315 L130.188905,32.5708072 C130.089801,32.495751 130.005562,32.4028738 129.940506,32.2969372 L123.774886,22.2569657 C123.712152,22.1548094 123.668297,22.0422051 123.645415,21.9245276 L122.388542,15.4606095 L121.242346,15.2695769 L113.471729,24.1773573 C113.016899,24.6987478 112.182738,24.611795 111.845216,24.0078099 L108.133601,17.3659716 L99.5628883,8.21089213 L91.0476054,2.53403687 L88.5424029,7.20255664 L81.2986341,18.1031426 C81.244782,18.1841804 81.1793911,18.256925 81.1045288,18.3190765 L70.0880298,27.4650889 C69.7137565,27.7758145 69.1701792,27.7721362 68.8001452,27.4563739 L67.3013111,26.1773688 L64.5416586,30.5993061 C64.1633637,31.2054681 63.2897955,31.2307785 62.8770393,30.6475361 L54.1637951,18.3353431 L49.9271312,19.6242283 C49.5306179,19.7448563 49.1007873,19.6083905 48.8464721,19.2811326 L42.6833303,11.3502785 L36.4708175,25.0755975 C36.4156163,25.1975536 36.3364905,25.307185 36.2381312,25.397992 L31.23293,30.0188817 L29.3251859,36.6959858 C29.1426147,37.3349851 28.3990679,37.6214308 27.8349716,37.2700795 L24.9467302,35.4711177 L24.1225014,40.6620317 Z" id="Combined-Shape" fill-rule="nonzero"></path>
            <path d="M33.6352531,57.1931336 L33.6352531,59.1493097 C33.6352531,59.6198698 33.6117254,59.9694236 33.5646694,60.1979814 C34.2167313,59.559364 34.8620613,59.2400601 35.5006787,59.2400601 C36.1258515,59.2400601 36.5779186,59.4383646 36.8568935,59.8349796 C37.1358685,60.2315946 37.2753539,60.8870079 37.2753539,61.8012391 C37.2753539,62.6953034 37.119063,63.3473556 36.8064766,63.7574152 C36.4938902,64.1674747 35.9510736,64.3725014 35.1780105,64.3725014 C34.4318365,64.3725014 33.7058403,64.2615854 33,64.0397498 L33,57.1931336 L33.6352531,57.1931336 Z M33.6352531,60.6315668 L33.6352531,63.6263312 C34.1327024,63.7674992 34.6435886,63.83136 35.1679271,63.8179154 C35.6922656,63.8179154 36.0636664,63.6666662 36.2821408,63.3641633 C36.5006151,63.0616603 36.6098507,62.5406908 36.6098507,61.8012391 C36.6098507,61.0550651 36.5174206,60.5357761 36.3325577,60.2433566 C36.1476948,59.9509371 35.8099049,59.8047295 35.3191778,59.8047295 C35.0570086,59.8047295 34.803246,59.8702708 34.5578825,60.0013554 C34.312519,60.13244 34.0049789,60.3425084 33.6352531,60.6315668 Z M41.5910413,62.1239073 L39.1508629,62.1239073 C39.1911966,62.769247 39.3390848,63.2129113 39.5945317,63.4549137 C39.8499787,63.6969161 40.2667543,63.8179154 40.844871,63.8179154 C41.3490427,63.8179154 41.9103453,63.7775823 42.5287958,63.6969149 L42.5993795,64.1305003 C42.1825976,64.2918352 41.5675175,64.3725014 40.7541206,64.3725014 C39.9340015,64.3725014 39.3508517,64.1758775 39.0046539,63.7826236 C38.658456,63.3893697 38.4853597,62.7255538 38.4853597,61.7911557 C38.4853597,60.8500354 38.6534144,60.1895805 38.9895288,59.8097712 C39.3256432,59.4299619 39.8869458,59.2400601 40.6734536,59.2400601 C41.3658492,59.2400601 41.8767355,59.3661011 42.2061276,59.6181869 C42.5355197,59.8702727 42.7035744,60.2517569 42.7102967,60.7626508 C42.7237413,61.6701597 42.3506599,62.1239073 41.5910413,62.1239073 Z M39.1508629,61.6197382 L41.4397906,61.6197382 C41.870017,61.6197382 42.0784048,61.3374063 42.0649602,60.7727341 C42.058238,60.4298974 41.9473219,60.1811765 41.7322086,60.0265639 C41.5170954,59.8719513 41.1742639,59.7946461 40.7037037,59.7946461 C40.1323092,59.7946461 39.7323391,59.9274093 39.5037813,60.1929397 C39.2752235,60.4584701 39.1575852,60.9340648 39.1508629,61.6197382 Z M47.0461509,59.2400601 L46.9654838,59.845063 L46.7234826,59.845063 C46.4411465,59.845063 46.1554536,59.9038821 45.8663952,60.0215222 C45.5773368,60.1391622 45.2076165,60.3324251 44.7572232,60.6013166 L44.7572232,64.2515009 L44.1118868,64.2515009 L44.1118868,59.3711441 L44.6059725,59.3711441 L44.6765561,60.1778146 C45.4765084,59.5526418 46.1957825,59.2400601 46.8343998,59.2400601 L47.0461509,59.2400601 Z M52.4508435,59.7341458 L51.6340896,59.7946461 C51.8223137,60.0232039 51.9164243,60.3559522 51.9164243,60.7929009 C51.9164243,61.3239617 51.761814,61.7104874 51.4525887,61.9524898 C51.1433635,62.1944922 50.6190328,62.3154916 49.8795812,62.3154916 C49.4224656,62.3154916 49.0527453,62.2717973 48.7704092,62.1844076 C48.6695748,62.3121311 48.6090751,62.4448943 48.5889083,62.5827012 C48.5687414,62.7205081 48.6040329,62.8482296 48.6947838,62.9658697 C48.7855347,63.0835097 48.9351033,63.1591343 49.1434943,63.1927458 L51.0190033,63.5053306 C51.4626743,63.5725535 51.7702144,63.7103583 51.9416327,63.9187493 C52.1130511,64.1271402 52.198759,64.4363608 52.198759,64.8464204 C52.198759,65.397648 52.0323848,65.7808127 51.6996316,65.9959259 C51.3668783,66.2110391 50.7770064,66.3185941 49.9299981,66.3185941 C49.0695452,66.3185941 48.4712705,66.2127197 48.1351561,66.0009676 C47.7990417,65.7892155 47.630987,65.4110925 47.630987,64.8665871 C47.630987,64.5439173 47.6914867,64.2867937 47.8124879,64.0952084 C47.9334891,63.9036232 48.1485991,63.7271658 48.4578243,63.5658309 C48.1687659,63.3843291 48.0292805,63.1322471 48.039364,62.8095773 C48.0494474,62.4869074 48.1822106,62.2314643 48.4376576,62.0432402 C48.0343203,61.8214047 47.8326546,61.4046291 47.8326546,60.7929009 C47.8326546,60.2483956 47.987265,59.8534671 48.2964902,59.6081035 C48.6057155,59.36274 49.1334072,59.2400601 49.8795812,59.2400601 C50.3299745,59.2400601 50.6896115,59.2837543 50.958503,59.3711441 L52.491177,59.3711441 L52.4508435,59.7341458 Z M49.8795812,61.8214058 C50.4039196,61.8214058 50.7736399,61.7407396 50.9887532,61.5794047 C51.2038664,61.4180698 51.3114214,61.1559045 51.3114214,60.7929009 C51.3114214,60.4164528 51.2038664,60.1475653 50.9887532,59.9862304 C50.7736399,59.8248954 50.4039196,59.7442292 49.8795812,59.7442292 C49.3485204,59.7442292 48.9737584,59.8248954 48.7552841,59.9862304 C48.5368097,60.1475653 48.4275742,60.4164528 48.4275742,60.7929009 C48.4275742,61.1559045 48.5384903,61.4180698 48.7603258,61.5794047 C48.9821613,61.7407396 49.3552427,61.8214058 49.8795812,61.8214058 Z M48.8914097,63.7069982 L48.8510762,63.7372484 C48.6292407,63.891861 48.4746304,64.0464713 48.3872406,64.201084 C48.2998509,64.3556966 48.2561567,64.5640844 48.2561567,64.8262536 C48.2561567,65.1959795 48.373795,65.4463809 48.609075,65.5774656 C48.8443551,65.7085502 49.2846584,65.7740915 49.9299981,65.7740915 C50.5618931,65.7740915 50.9937937,65.7068696 51.2257126,65.5724239 C51.4576316,65.4379781 51.5735893,65.1892572 51.5735893,64.8262536 C51.5735893,64.5439175 51.5181313,64.3472935 51.4072135,64.2363758 C51.2962957,64.125458 51.0660608,64.0431112 50.7165018,63.9893329 L48.8914097,63.7069982 Z M56.5648633,57.5662187 L55.5161916,57.5662187 C55.1666326,57.5662187 54.9212728,57.6368017 54.7801047,57.7779697 C54.6389367,57.9191378 54.5683537,58.1577754 54.5683537,58.4938898 L54.5683537,59.3711441 L56.2119449,59.3711441 L56.2119449,59.8753132 L54.5683537,59.8753132 L54.5683537,64.2515009 L53.9230173,64.2515009 L53.9230173,59.8753132 L53.045763,59.8753132 L53.045763,59.421561 L53.9230173,59.3711441 L53.9230173,58.4333896 C53.9230173,57.9695517 54.0288917,57.6199979 54.2406438,57.3847178 C54.4523959,57.1494378 54.8036301,57.0317995 55.2943572,57.0317995 C55.7918065,57.0317995 56.2287487,57.051966 56.6051968,57.0922998 L56.5648633,57.5662187 Z M58.5613729,58.2720554 L58.3395385,58.2720554 C58.211815,58.2720554 58.1479542,58.2081947 58.1479542,58.0804712 L58.1479542,57.5258852 C58.1479542,57.3914394 58.211815,57.3242176 58.3395385,57.3242176 L58.5613729,57.3242176 C58.6823741,57.3242176 58.7428738,57.3914394 58.7428738,57.5258852 L58.7428738,58.0804712 C58.7428738,58.2081947 58.6823741,58.2720554 58.5613729,58.2720554 Z M60.3461315,58.2720554 L60.1242971,58.2720554 C59.9965736,58.2720554 59.9327128,58.2081947 59.9327128,58.0804712 L59.9327128,57.5258852 C59.9327128,57.3914394 59.9965736,57.3242176 60.1242971,57.3242176 L60.3461315,57.3242176 C60.4738549,57.3242176 60.5377157,57.3914394 60.5377157,57.5258852 L60.5377157,58.0804712 C60.5377157,58.2081947 60.4738549,58.2720554 60.3461315,58.2720554 Z M61.3343029,59.3711441 L61.3343029,64.2515009 L60.8301338,64.2515009 L60.7797169,63.4851638 C60.0268206,64.0767252 59.3041855,64.3725014 58.6117898,64.3725014 C57.7311701,64.3725014 57.2908668,63.9288371 57.2908668,63.041495 L57.2908668,59.3711441 L57.9261198,59.3711441 L57.9261198,62.8700776 C57.9261198,63.206192 57.9967028,63.4481907 58.1378709,63.596081 C58.2790389,63.7439714 58.5075933,63.8179154 58.8235408,63.8179154 C59.0991546,63.8179154 59.3747643,63.7557352 59.6503781,63.6313729 C59.9259919,63.5070105 60.2755457,63.3003033 60.6990498,63.0112449 L60.6990498,59.3711441 L61.3343029,59.3711441 Z M63.6938142,57.1931336 L63.6938142,59.2198933 C63.6938142,59.609786 63.6702866,59.9257289 63.6232306,60.1677312 C64.4567943,59.5492807 65.2063182,59.2400601 65.8718247,59.2400601 C66.3020511,59.2400601 66.6297578,59.3543373 66.8549544,59.5828951 C67.0801511,59.8114529 67.1927477,60.1442011 67.1927477,60.5811499 L67.1927477,64.2515009 L66.5474113,64.2515009 L66.5474113,60.7525674 C66.5474113,60.4097307 66.48187,60.1643708 66.3507853,60.0164805 C66.2197007,59.8685902 66.0029102,59.7946461 65.7004072,59.7946461 C65.4046265,59.7946461 65.1054892,59.8601874 64.8029862,59.991272 C64.5004833,60.1223567 64.1240408,60.3391472 63.6736475,60.6416502 L63.6736475,64.2515009 L63.0383944,64.2515009 L63.0383944,57.1931336 L63.6938142,57.1931336 Z M71.7907698,59.2400601 L71.7101028,59.845063 L71.4681016,59.845063 C71.1857655,59.845063 70.9000725,59.9038821 70.6110142,60.0215222 C70.3219558,60.1391622 69.9522355,60.3324251 69.5018422,60.6013166 L69.5018422,64.2515009 L68.8565057,64.2515009 L68.8565057,59.3711441 L69.3505914,59.3711441 L69.4211751,60.1778146 C70.2211274,59.5526418 70.9404014,59.2400601 71.5790188,59.2400601 L71.7907698,59.2400601 Z M75.5216211,62.1239073 L73.0814427,62.1239073 C73.1217764,62.769247 73.2696645,63.2129113 73.5251115,63.4549137 C73.7805584,63.6969161 74.1973341,63.8179154 74.7754508,63.8179154 C75.2796225,63.8179154 75.8409251,63.7775823 76.4593756,63.6969149 L76.5299593,64.1305003 C76.1131774,64.2918352 75.4980973,64.3725014 74.6847004,64.3725014 C73.8645813,64.3725014 73.2814315,64.1758775 72.9352337,63.7826236 C72.5890358,63.3893697 72.4159395,62.7255538 72.4159395,61.7911557 C72.4159395,60.8500354 72.5839942,60.1895805 72.9201086,59.8097712 C73.256223,59.4299619 73.8175256,59.2400601 74.6040334,59.2400601 C75.296429,59.2400601 75.8073153,59.3661011 76.1367074,59.6181869 C76.4660995,59.8702727 76.6341542,60.2517569 76.6408765,60.7626508 C76.6543211,61.6701597 76.2812397,62.1239073 75.5216211,62.1239073 Z M73.0814427,61.6197382 L75.3703704,61.6197382 C75.8005968,61.6197382 76.0089846,61.3374063 75.99554,60.7727341 C75.9888178,60.4298974 75.8779017,60.1811765 75.6627884,60.0265639 C75.4476752,59.8719513 75.1048437,59.7946461 74.6342835,59.7946461 C74.062889,59.7946461 73.6629189,59.9274093 73.4343611,60.1929397 C73.2058033,60.4584701 73.088165,60.9340648 73.0814427,61.6197382 Z M80.9767307,59.2400601 L80.8960636,59.845063 L80.6540624,59.845063 C80.3717263,59.845063 80.0860334,59.9038821 79.796975,60.0215222 C79.5079166,60.1391622 79.1381963,60.3324251 78.687803,60.6013166 L78.687803,64.2515009 L78.0424666,64.2515009 L78.0424666,59.3711441 L78.5365523,59.3711441 L78.6071359,60.1778146 C79.4070882,59.5526418 80.1263623,59.2400601 80.7649796,59.2400601 L80.9767307,59.2400601 Z M82.0052356,59.9358134 L81.9447353,59.4618945 C82.9194671,59.3140042 83.7026019,59.2400601 84.2941633,59.2400601 C84.8185017,59.2400601 85.2100692,59.3560178 85.4688773,59.5879368 C85.7276853,59.8198557 85.8570875,60.2047009 85.8570875,60.742484 L85.8570875,64.2515009 L85.3529184,64.2515009 L85.2722513,63.3944134 C85.0302489,63.6364158 84.7159867,63.8532063 84.3294551,64.0447915 C83.9429235,64.2363767 83.5446339,64.3321679 83.1345744,64.3321679 C82.7043479,64.3321679 82.3648775,64.2178907 82.1161528,63.9893329 C81.8674281,63.7607751 81.7430677,63.434749 81.7430677,63.0112449 L81.7430677,62.4465755 C81.7430677,62.0701274 81.8539838,61.7777122 82.0758193,61.5693213 C82.2976548,61.3609304 82.6135976,61.2567365 83.0236572,61.2567365 L85.211751,61.2567365 L85.211751,60.742484 C85.211751,60.4198142 85.1361264,60.1811765 84.9848749,60.0265639 C84.8336234,59.8719513 84.5630554,59.7946461 84.1731627,59.7946461 C83.5950459,59.7946461 82.8724108,59.8417014 82.0052356,59.9358134 Z M82.3884041,62.5272426 L82.3884041,62.9507446 C82.3884041,63.4952499 82.6740971,63.7674985 83.2454916,63.7674985 C83.5412722,63.7742208 83.87234,63.7019573 84.2387047,63.5507058 C84.6050694,63.3994543 84.9294149,63.1961082 85.211751,62.9406612 L85.211751,61.7709889 L83.124491,61.7709889 C82.6337639,61.7911558 82.3884041,62.0432378 82.3884041,62.5272426 Z M89.7896064,62.1844076 L88.2972659,61.9020729 C87.9140954,61.8281277 87.6368052,61.6886423 87.4653869,61.4836126 C87.2939685,61.2785828 87.2082606,60.9744038 87.2082606,60.5710665 C87.2082606,60.0198389 87.347746,59.6585213 87.626721,59.487103 C87.9056959,59.3156846 88.391374,59.2333378 89.0837696,59.2400601 C89.8232213,59.2535047 90.4887179,59.3039211 91.0802792,59.3913108 L91.0197789,59.8551464 C90.2131044,59.8148127 89.5946631,59.7946461 89.1644367,59.7946461 C88.6266536,59.7879238 88.2703777,59.8265764 88.0955982,59.910605 C87.9208187,59.9946336 87.8334303,60.2147852 87.8334303,60.5710665 C87.8334303,60.8466803 87.8905689,61.0382627 88.0048478,61.1458193 C88.1191267,61.2533759 88.310709,61.3340421 88.5796005,61.3878204 L90.0820244,61.6701551 C90.4719171,61.7508226 90.7576101,61.890308 90.9391119,62.0886155 C91.1206137,62.286923 91.2113632,62.5843797 91.2113632,62.9809948 C91.2113632,63.5523892 91.0584334,63.9254706 90.7525693,64.1002501 C90.4467052,64.2750296 89.9240551,64.3624181 89.1846035,64.3624181 C88.5190969,64.3624181 87.8972946,64.3187238 87.3191778,64.2313341 L87.3695947,63.7574152 C87.9006555,63.8044712 88.4686803,63.8246377 89.0736863,63.8179154 C89.6719699,63.8111932 90.0736206,63.7557351 90.2786504,63.6515396 C90.4836802,63.5473442 90.5861935,63.3238314 90.5861935,62.9809948 C90.5861935,62.7188255 90.5223327,62.5339654 90.3946093,62.4264088 C90.2668858,62.3188521 90.0652202,62.2381859 89.7896064,62.1844076 Z M93.1272057,59.3711441 L93.187706,60.1778146 C93.8128788,59.5526418 94.4850976,59.2400601 95.2043824,59.2400601 C95.8093883,59.2400601 96.2463305,59.4484479 96.515222,59.8652298 C96.7841136,60.2820116 96.9185573,60.9374249 96.9185573,61.8314892 C96.9185573,62.7524427 96.7757108,63.4061754 96.4900136,63.792707 C96.2043163,64.1792386 95.7421659,64.3725014 95.1035486,64.3725014 C94.4582089,64.3725014 93.8296844,64.2010857 93.2179562,63.858249 C93.2448453,64.1338628 93.2515675,64.4565278 93.2381229,64.8262536 L93.2381229,66.3085107 L92.6028699,66.3085107 L92.6028699,59.3711441 L93.1272057,59.3711441 Z M93.2381229,60.6416502 L93.2381229,63.4448303 C93.9842969,63.6868327 94.5590439,63.8078321 94.9623812,63.8078321 C95.4396637,63.8078321 95.7757731,63.6649856 95.9707194,63.3792883 C96.1656658,63.0935911 96.2631375,62.5743021 96.2631375,61.8214058 C96.2631375,61.0819541 96.1690269,60.5609846 95.9808028,60.2584817 C95.7925787,59.9559787 95.4732748,59.8047295 95.0228815,59.8047295 C94.75399,59.8047295 94.4851025,59.8702708 94.216211,60.0013554 C93.9473194,60.13244 93.6212934,60.3458695 93.2381229,60.6416502 Z M98.5923987,57.3141342 L98.8848168,57.3141342 C99.0259848,57.3141342 99.0965678,57.3847171 99.0965678,57.5258852 L99.0965678,58.1107213 C99.0965678,58.2518894 99.0259848,58.3224724 98.8848168,58.3224724 L98.5923987,58.3224724 C98.4512306,58.3224724 98.3806477,58.2518894 98.3806477,58.1107213 L98.3806477,57.5258852 C98.3806477,57.3847171 98.4512306,57.3141342 98.5923987,57.3141342 Z M99.0562342,64.2515009 L98.4209812,64.2515009 L98.4209812,59.3711441 L99.0562342,59.3711441 L99.0562342,64.2515009 Z M103.714757,59.2400601 L103.63409,59.845063 L103.392088,59.845063 C103.109752,59.845063 102.824059,59.9038821 102.535001,60.0215222 C102.245943,60.1391622 101.876222,60.3324251 101.425829,60.6013166 L101.425829,64.2515009 L100.780493,64.2515009 L100.780493,59.3711441 L101.274578,59.3711441 L101.345162,60.1778146 C102.145114,59.5526418 102.864388,59.2400601 103.503006,59.2400601 L103.714757,59.2400601 Z M104.743262,59.9358134 L104.682761,59.4618945 C105.657493,59.3140042 106.440628,59.2400601 107.032189,59.2400601 C107.556528,59.2400601 107.948095,59.3560178 108.206903,59.5879368 C108.465711,59.8198557 108.595113,60.2047009 108.595113,60.742484 L108.595113,64.2515009 L108.090944,64.2515009 L108.010277,63.3944134 C107.768275,63.6364158 107.454013,63.8532063 107.067481,64.0447915 C106.68095,64.2363767 106.28266,64.3321679 105.8726,64.3321679 C105.442374,64.3321679 105.102903,64.2178907 104.854179,63.9893329 C104.605454,63.7607751 104.481094,63.434749 104.481094,63.0112449 L104.481094,62.4465755 C104.481094,62.0701274 104.59201,61.7777122 104.813845,61.5693213 C105.035681,61.3609304 105.351624,61.2567365 105.761683,61.2567365 L107.949777,61.2567365 L107.949777,60.742484 C107.949777,60.4198142 107.874152,60.1811765 107.722901,60.0265639 C107.571649,59.8719513 107.301081,59.7946461 106.911189,59.7946461 C106.333072,59.7946461 105.610437,59.8417014 104.743262,59.9358134 Z M105.12643,62.5272426 L105.12643,62.9507446 C105.12643,63.4952499 105.412123,63.7674985 105.983518,63.7674985 C106.279298,63.7742208 106.610366,63.7019573 106.976731,63.5507058 C107.343095,63.3994543 107.667441,63.1961082 107.949777,62.9406612 L107.949777,61.7709889 L105.862517,61.7709889 C105.37179,61.7911558 105.12643,62.0432378 105.12643,62.5272426 Z M110.783207,59.3711441 L110.833624,60.1778146 C111.647021,59.5526418 112.399906,59.2400601 113.092302,59.2400601 C113.966199,59.2400601 114.403141,59.6870856 114.403141,60.5811499 L114.403141,64.2515009 L113.767888,64.2515009 L113.767888,60.7525674 C113.767888,60.4097307 113.702347,60.1643708 113.571262,60.0164805 C113.440178,59.8685902 113.223387,59.7946461 112.920884,59.7946461 C112.625104,59.7946461 112.327647,59.861868 112.028505,59.9963137 C111.729363,60.1307595 111.35124,60.3458695 110.894124,60.6416502 L110.894124,64.2515009 L110.248788,64.2515009 L110.248788,59.3711441 L110.783207,59.3711441 Z M118.547411,63.7473318 L118.628078,64.2313341 C118.291964,64.298557 117.952493,64.3321679 117.609657,64.3321679 C116.802982,64.3321679 116.399651,63.9254756 116.399651,63.1120787 L116.399651,59.8753132 L115.512313,59.8753132 L115.512313,59.421561 L116.399651,59.3711441 L116.399651,57.8888869 L117.034904,57.8888869 L117.034904,59.3711441 L118.688579,59.3711441 L118.688579,59.8753132 L117.034904,59.8753132 L117.034904,63.041495 C117.034904,63.5120552 117.273542,63.7473318 117.750824,63.7473318 L118.547411,63.7473318 Z M124.345356,62.1844076 L122.853015,61.9020729 C122.469845,61.8281277 122.192555,61.6886423 122.021136,61.4836126 C121.849718,61.2785828 121.76401,60.9744038 121.76401,60.5710665 C121.76401,60.0198389 121.903495,59.6585213 122.18247,59.487103 C122.461445,59.3156846 122.947123,59.2333378 123.639519,59.2400601 C124.378971,59.2535047 125.044467,59.3039211 125.636029,59.3913108 L125.575528,59.8551464 C124.768854,59.8148127 124.150413,59.7946461 123.720186,59.7946461 C123.182403,59.7879238 122.826127,59.8265764 122.651348,59.910605 C122.476568,59.9946336 122.38918,60.2147852 122.38918,60.5710665 C122.38918,60.8466803 122.446318,61.0382627 122.560597,61.1458193 C122.674876,61.2533759 122.866458,61.3340421 123.13535,61.3878204 L124.637774,61.6701551 C125.027667,61.7508226 125.31336,61.890308 125.494861,62.0886155 C125.676363,62.286923 125.767113,62.5843797 125.767113,62.9809948 C125.767113,63.5523892 125.614183,63.9254706 125.308319,64.1002501 C125.002455,64.2750296 124.479805,64.3624181 123.740353,64.3624181 C123.074846,64.3624181 122.453044,64.3187238 121.874927,64.2313341 L121.925344,63.7574152 C122.456405,63.8044712 123.02443,63.8246377 123.629436,63.8179154 C124.227719,63.8111932 124.62937,63.7557351 124.8344,63.6515396 C125.03943,63.5473442 125.141943,63.3238314 125.141943,62.9809948 C125.141943,62.7188255 125.078082,62.5339654 124.950359,62.4264088 C124.822635,62.3188521 124.62097,62.2381859 124.345356,62.1844076 Z M127.773706,57.1931336 L127.773706,59.1493097 C127.773706,59.6198698 127.750178,59.9694236 127.703122,60.1979814 C128.355184,59.559364 129.000514,59.2400601 129.639131,59.2400601 C130.264304,59.2400601 130.716371,59.4383646 130.995346,59.8349796 C131.274321,60.2315946 131.413806,60.8870079 131.413806,61.8012391 C131.413806,62.6953034 131.257516,63.3473556 130.944929,63.7574152 C130.632343,64.1674747 130.089526,64.3725014 129.316463,64.3725014 C128.570289,64.3725014 127.844293,64.2615854 127.138453,64.0397498 L127.138453,57.1931336 L127.773706,57.1931336 Z M127.773706,60.6315668 L127.773706,63.6263312 C128.271155,63.7674992 128.782041,63.83136 129.30638,63.8179154 C129.830718,63.8179154 130.202119,63.6666662 130.420593,63.3641633 C130.639068,63.0616603 130.748303,62.5406908 130.748303,61.8012391 C130.748303,61.0550651 130.655873,60.5357761 130.47101,60.2433566 C130.286147,59.9509371 129.948357,59.8047295 129.45763,59.8047295 C129.195461,59.8047295 128.941699,59.8702708 128.696335,60.0013554 C128.450972,60.13244 128.143431,60.3425084 127.773706,60.6315668 Z M137,59.3711441 L135.134574,64.0901668 C135.094241,64.1977234 135.013574,64.2515009 134.892573,64.2515009 L134.297654,64.2515009 C134.176652,64.2515009 134.095986,64.1977234 134.055653,64.0901668 L132.190227,59.3711441 L132.875897,59.3711441 L134.206903,62.9003277 C134.247237,63.001162 134.302695,63.1524112 134.373279,63.3540799 C134.443863,63.5557485 134.49596,63.6969145 134.529571,63.7775819 L134.660655,63.7775819 L134.993407,62.8902443 L136.324413,59.3711441 L137,59.3711441 Z" id="bergführeraspirant-s"></path>
            <path d="M36.1569662,39.2330646 L36.1569662,42.5595324 C36.1569662,43.5341711 36.0651538,44.3534204 35.8815262,45.0173047 C36.9832917,43.8872888 38.2192281,43.3222893 39.5893724,43.3222893 C40.9453915,43.3222893 41.9235469,43.7425077 42.5238678,44.582957 C43.1241888,45.4234064 43.4243448,46.8111863 43.4243448,48.7463386 C43.4243448,50.5402389 43.0570951,51.9174251 42.3225848,52.8779387 C41.5880744,53.8384522 40.2532631,54.3187018 38.3181109,54.3187018 C37.4705989,54.3187018 36.5206935,54.2480769 35.4683662,54.1068249 C34.4160389,53.9655729 33.5932584,53.767823 33,53.5135695 L33,39.2330646 L36.1569662,39.2330646 Z M36.1357785,46.7123201 L36.1357785,51.7973664 C36.8561637,51.9527436 37.562413,52.016306 38.2545478,51.9880556 C38.9749329,51.9598052 39.4799012,51.7196804 39.7694678,51.267674 C40.0590344,50.8156677 40.2038155,49.9822934 40.2038155,48.7675263 C40.2038155,47.60926 40.0837531,46.8288544 39.8436247,46.4262863 C39.6034963,46.0237181 39.1020593,45.822437 38.3392985,45.822437 C37.7601654,45.822437 37.0256661,46.1190618 36.1357785,46.7123201 Z M45.8609294,45.9495632 L45.5643017,43.8307939 C47.4429532,43.4917891 49.2580141,43.3222893 51.0095388,43.3222893 C52.4220587,43.3222893 53.4602452,43.6083203 54.1241296,44.1803909 C54.7880139,44.7524614 55.1199511,45.7447418 55.1199511,47.1572617 L55.1199511,54.0644495 L52.6409911,54.0644495 L52.3231757,52.4753725 C51.277911,53.7042648 49.9925371,54.3187018 48.4670156,54.3187018 C47.4641265,54.3187018 46.6448772,54.0538583 46.0092433,53.5241633 C45.3736093,52.9944683 45.0557971,52.2564378 45.0557971,51.3100494 L45.0557971,50.2506648 C45.0557971,49.4172781 45.3382969,48.7675286 45.9033048,48.3013971 C46.4683128,47.8352655 47.2522496,47.6022032 48.2551387,47.6022032 L51.9841726,47.6022032 L51.9841726,47.136074 C51.9700474,46.5993164 51.8464538,46.2391292 51.613388,46.0555017 C51.3803222,45.8718741 50.9318539,45.7800616 50.2679695,45.7800616 C49.1097032,45.7800616 47.6407045,45.8365616 45.8609294,45.9495632 Z M48.1492002,50.4837294 L48.1492002,50.8862956 C48.1492002,51.6066807 48.5588249,51.9668679 49.3780864,51.9668679 C50.2255984,51.9668679 51.0942851,51.6278682 51.9841726,50.9498587 L51.9841726,49.4879079 L49.1662095,49.4879079 C48.4881999,49.5020331 48.1492002,49.8339703 48.1492002,50.4837294 Z M60.7346897,39.2330646 L60.7346897,50.653231 C60.7346897,51.3594909 61.1301893,51.7126156 61.9212005,51.7126156 L62.7687082,51.7126156 L63.1288989,53.8949479 C62.5921414,54.1774519 61.7587671,54.3187018 60.6287512,54.3187018 C59.6964881,54.3187018 58.9619887,54.0679833 58.4252312,53.5665387 C57.8884736,53.0650941 57.6200989,52.3553135 57.6200989,51.4371756 L57.6200989,39.2330646 L60.7346897,39.2330646 Z M73.5108683,51.8185541 L73.5108683,54.0644495 L64.0823451,54.0644495 L64.0823451,51.8185541 L69.8453975,45.8436247 L64.1882836,45.8436247 L64.1882836,43.618917 L73.4049299,43.618917 L73.4049299,45.8436247 L67.6630652,51.8185541 L73.5108683,51.8185541 Z M87.7489978,43.3222893 L87.4311824,46.2250032 L86.5836747,46.2250032 C85.89154,46.2250032 84.8251034,46.465128 83.3843331,46.9453847 L83.3843331,54.0644495 L80.2485546,54.0644495 L80.2485546,43.618917 L82.6851393,43.618917 L82.9605793,45.1444309 C84.3872244,43.9296637 85.7997231,43.3222893 87.1981178,43.3222893 L87.7489978,43.3222893 Z M90.1855825,39 L91.5839702,39 C92.1913537,39 92.495041,39.3036872 92.495041,39.9110708 L92.495041,41.0552062 C92.495041,41.6625897 92.1913537,41.966277 91.5839702,41.966277 L90.1855825,41.966277 C89.5781989,41.966277 89.2745117,41.6625897 89.2745117,41.0552062 L89.2745117,39.9110708 C89.2745117,39.3036872 89.5781989,39 90.1855825,39 Z M92.4526656,54.0644495 L89.3380748,54.0644495 L89.3380748,43.618917 L92.4526656,43.618917 L92.4526656,54.0644495 Z M101.754063,49.890474 L97.9826534,49.890474 C98.0815298,50.6532348 98.3110608,51.1652656 98.6712534,51.4265817 C99.0314459,51.6878979 99.6282267,51.8185541 100.461613,51.8185541 C101.577504,51.8185541 102.877003,51.7408666 104.360149,51.5854894 L104.656777,53.5347572 C103.569136,54.0573895 102.0507,54.3187018 100.101423,54.3187018 C98.13802,54.3187018 96.7396462,53.8949522 95.9062595,53.0474402 C95.0728727,52.1999283 94.6561856,50.8015546 94.6561856,48.8522771 C94.6561856,46.8041232 95.062279,45.370437 95.8744779,44.5511755 C96.6866769,43.7319139 98.0532694,43.3222893 99.9742965,43.3222893 C101.711696,43.3222893 102.96882,43.6224453 103.745706,44.2227662 C104.522592,44.8230872 104.918091,45.7376801 104.932217,46.9665724 C104.932217,47.9412112 104.681498,48.6721793 104.180053,49.1594986 C103.678609,49.646818 102.869953,49.890474 101.754063,49.890474 Z M97.9190903,48.0047694 L100.885367,48.0047694 C101.266748,48.0047694 101.524529,47.912957 101.658718,47.7293294 C101.792907,47.5457018 101.860001,47.277327 101.860001,46.9241971 C101.860001,46.4298151 101.732876,46.0872841 101.478623,45.896594 C101.224369,45.7059038 100.758244,45.6105601 100.080235,45.6105601 C99.2750986,45.6105601 98.7242241,45.7694662 98.4275949,46.0872832 C98.1309657,46.4051002 97.9614659,47.0442558 97.9190903,48.0047694 Z M111.60634,50.1871017 L109.000254,49.4879079 C108.03974,49.2054039 107.375866,48.820498 107.00861,48.3331786 C106.641355,47.8458592 106.45773,47.1713911 106.45773,46.309754 C106.45773,45.2221136 106.793199,44.4523018 107.464146,44.0002955 C108.135093,43.5482891 109.282748,43.3222893 110.907146,43.3222893 C112.785797,43.3505397 114.396046,43.4847271 115.73794,43.7248555 L115.526063,45.7376863 C113.746288,45.7094359 112.404414,45.6953109 111.500401,45.6953109 C111.006019,45.6953109 110.663488,45.6988421 110.472798,45.7059047 C110.282108,45.7129673 110.091421,45.7376861 109.90073,45.7800616 C109.71004,45.8224372 109.593509,45.8895309 109.551134,45.9813447 C109.508758,46.0731585 109.48757,46.2108771 109.48757,46.3945047 C109.48757,46.4651307 109.491102,46.5286932 109.498164,46.585194 C109.505227,46.6416948 109.522883,46.6946635 109.551134,46.7441017 C109.579384,46.7935399 109.604103,46.8323836 109.62529,46.860634 C109.646478,46.8888844 109.685322,46.9206656 109.741823,46.9559786 C109.798324,46.9912916 109.84423,47.0160103 109.879543,47.0301355 C109.914856,47.0442607 109.978418,47.0689794 110.070232,47.1042924 C110.162046,47.1396054 110.232671,47.1643242 110.282109,47.1784494 C110.331547,47.1925746 110.42336,47.2172933 110.557549,47.2526063 C110.691738,47.2879193 110.794144,47.312638 110.86477,47.3267632 L113.53442,48.0471448 C114.466683,48.3155235 115.130557,48.6721795 115.526063,49.1171232 C115.921568,49.562067 116.119318,50.2224102 116.119318,51.0981725 C116.119318,52.34119 115.759131,53.185158 115.038746,53.6301018 C114.318361,54.0750455 113.082424,54.2975141 111.3309,54.2975141 C109.635876,54.2975141 108.075065,54.1774517 106.64842,53.9373233 L106.839109,51.9033048 C107.347616,51.9315552 108.555302,51.9456802 110.462204,51.9456802 C111.549845,51.9456802 112.259625,51.899774 112.591567,51.8079602 C112.92351,51.7161464 113.089478,51.5007404 113.089478,51.1617356 C113.089478,51.0911096 113.085947,51.0275471 113.078884,50.9710463 C113.071822,50.9145456 113.054166,50.8615768 113.025915,50.8121387 C112.997665,50.7627005 112.969415,50.7238567 112.941164,50.6956063 C112.912914,50.6673559 112.867008,50.6355747 112.803444,50.6002617 C112.739881,50.5649487 112.690444,50.5366988 112.655131,50.515511 C112.619818,50.4943232 112.552724,50.4660732 112.453847,50.4307602 C112.354971,50.3954472 112.277284,50.3707285 112.220783,50.3566033 L111.924155,50.2824463 C111.782903,50.2471333 111.676966,50.2153521 111.60634,50.1871017 Z M124.785085,49.890474 L121.013675,49.890474 C121.112552,50.6532348 121.342083,51.1652656 121.702275,51.4265817 C122.062468,51.6878979 122.659249,51.8185541 123.492635,51.8185541 C124.608526,51.8185541 125.908025,51.7408666 127.391171,51.5854894 L127.687798,53.5347572 C126.600158,54.0573895 125.081722,54.3187018 123.132445,54.3187018 C121.169042,54.3187018 119.770668,53.8949522 118.937281,53.0474402 C118.103895,52.1999283 117.687208,50.8015546 117.687208,48.8522771 C117.687208,46.8041232 118.093301,45.370437 118.9055,44.5511755 C119.717699,43.7319139 121.084291,43.3222893 123.005318,43.3222893 C124.742718,43.3222893 125.999842,43.6224453 126.776728,44.2227662 C127.553614,44.8230872 127.949113,45.7376801 127.963238,46.9665724 C127.963238,47.9412112 127.71252,48.6721793 127.211075,49.1594986 C126.709631,49.646818 125.900975,49.890474 124.785085,49.890474 Z M120.950112,48.0047694 L123.916389,48.0047694 C124.29777,48.0047694 124.555551,47.912957 124.68974,47.7293294 C124.823929,47.5457018 124.891023,47.277327 124.891023,46.9241971 C124.891023,46.4298151 124.763898,46.0872841 124.509645,45.896594 C124.255391,45.7059038 123.789266,45.6105601 123.111257,45.6105601 C122.30612,45.6105601 121.755246,45.7694662 121.458617,46.0872832 C121.161988,46.4051002 120.992488,47.0442558 120.950112,48.0047694 Z M137.4977,43.3222893 L137.179885,46.2250032 L136.332377,46.2250032 C135.640242,46.2250032 134.573806,46.465128 133.133035,46.9453847 L133.133035,54.0644495 L129.997257,54.0644495 L129.997257,43.618917 L132.433842,43.618917 L132.709282,45.1444309 C134.135927,43.9296637 135.548425,43.3222893 136.94682,43.3222893 L137.4977,43.3222893 Z" id="balz-rieser"></path>
        </g>
    </g>
</svg>