<?xml version="1.0" encoding="utf-8"?>
<!-- Generator: Adobe Illustrator 19.0.0, SVG Export Plug-In . SVG Version: 6.00 Build 0)  -->
<svg version="1.1" id="Layer_1" xmlns="http://www.w3.org/2000/svg" xmlns:xlink="http://www.w3.org/1999/xlink" x="0px" y="0px"
	 viewBox="485.53 321.38 150 150" style="enable-background:new 485.53 321.38 150 150;" xml:space="preserve">
<style type="text/css">
	.st0{fill:#FFFFFF;}
</style>
<path class="st0" d="M560.53,471.38c-10.09,0-19.9-1.99-29.15-5.91c-8.93-3.79-16.95-9.2-23.84-16.1
	c-6.9-6.9-12.31-14.92-16.1-23.84c-3.92-9.24-5.91-19.05-5.91-29.15s1.99-19.9,5.91-29.15c3.79-8.93,9.2-16.95,16.1-23.84
	c6.9-6.9,14.92-12.31,23.84-16.1c9.24-3.92,19.05-5.91,29.15-5.91c10.09,0,19.9,1.99,29.15,5.91c8.93,3.79,16.95,9.2,23.84,16.1
	c6.9,6.9,12.31,14.92,16.1,23.84c3.92,9.24,5.91,19.05,5.91,29.15s-1.99,19.9-5.91,29.15c-3.79,8.93-9.2,16.95-16.1,23.84
	s-14.92,12.31-23.84,16.1C580.43,469.39,570.62,471.38,560.53,471.38z M560.53,322.77c-9.91,0-19.53,1.95-28.6,5.8
	c-8.76,3.72-16.63,9.03-23.4,15.8c-6.77,6.77-12.09,14.64-15.8,23.4c-3.85,9.07-5.8,18.69-5.8,28.6s1.95,19.53,5.8,28.6
	c3.72,8.76,9.03,16.63,15.8,23.4c6.77,6.77,14.64,12.09,23.4,15.8c9.07,3.85,18.69,5.8,28.6,5.8c9.91,0,19.53-1.95,28.6-5.8
	c8.76-3.72,16.63-9.03,23.4-15.8c6.77-6.77,12.09-14.64,15.8-23.4c3.85-9.07,5.8-18.69,5.8-28.6s-1.95-19.53-5.8-28.6
	c-3.72-8.76-9.03-16.63-15.8-23.4c-6.77-6.77-14.64-12.09-23.4-15.8C580.06,324.73,570.43,322.77,560.53,322.77z"/>
<path class="st0" d="M560.53,452.3c-7.53,0-14.84-1.48-21.73-4.41c-6.66-2.82-12.64-6.86-17.78-12.01
	c-5.14-5.14-9.18-11.12-12.01-17.78c-2.92-6.89-4.41-14.21-4.41-21.73s1.48-14.84,4.41-21.73c2.82-6.66,6.86-12.64,12.01-17.78
	c5.14-5.14,11.12-9.18,17.78-12.01c6.89-2.92,14.21-4.41,21.73-4.41c7.53,0,14.84,1.48,21.73,4.41c6.66,2.82,12.64,6.86,17.78,12.01
	c5.14,5.14,9.18,11.12,12.01,17.78c2.92,6.89,4.41,14.21,4.41,21.73c0,7.53-1.48,14.84-4.41,21.73
	c-2.82,6.66-6.86,12.64-12.01,17.78c-5.14,5.14-11.12,9.18-17.78,12.01C575.37,450.82,568.05,452.3,560.53,452.3z M560.53,341.85
	c-14.52,0-28.2,5.68-38.52,16c-10.32,10.32-16,24-16,38.52s5.68,28.2,16,38.52c10.32,10.32,24,16,38.52,16
	c14.52,0,28.2-5.68,38.52-16c10.32-10.32,16-24,16-38.52s-5.68-28.2-16-38.52C588.73,347.53,575.05,341.85,560.53,341.85z"/>
<path class="st0" d="M574.78,412.17c-1.34,1.48-2.79,2.75-4.31,3.79c1.9,3.95,3.03,8.28,3.26,12.7c3.24-1.33,6.24-3.13,8.9-5.32
	c-1.57-3.74-3.91-7.24-6.8-10.16C575.49,412.83,575.14,412.5,574.78,412.17z"/>
<path class="st0" d="M577.3,408.93c-0.59,0.88-1.21,1.71-1.87,2.49c0.37,0.34,0.74,0.7,1.1,1.06c2.91,2.93,5.27,6.43,6.89,10.18
	c1.36-1.19,2.63-2.48,3.79-3.86C584.67,414.76,581.26,411.41,577.3,408.93z"/>
<path class="st0" d="M561.08,419.23l0.02,12.01c4.09-0.07,8.02-0.84,11.66-2.21c-0.18-4.35-1.26-8.64-3.12-12.54
	C566.92,418.17,564,419.12,561.08,419.23z"/>
<path class="st0" d="M546.38,412.48c-3.27,3.12-5.9,6.94-7.59,11.14c2.7,2.16,5.72,3.92,8.98,5.21c0.17-4.36,1.22-8.66,3.03-12.59
	C549.24,415.23,547.75,413.97,546.38,412.48z"/>
<path class="st0" d="M545.72,411.73c-0.69-0.8-1.34-1.67-1.96-2.58c-3.97,2.54-7.32,5.91-9.77,9.82c1.23,1.44,2.56,2.77,4,4
	c1.62-3.9,4.05-7.55,7.06-10.59C545.27,412.16,545.49,411.94,545.72,411.73z"/>
<path class="st0" d="M558.52,404.19c-4.54,0.32-9.05,1.68-13.15,3.98c-0.26,0.15-0.52,0.3-0.78,0.45c0.58,0.87,1.2,1.68,1.85,2.43
	c2.93-2.63,6.32-4.72,9.9-6.11C557,404.7,557.76,404.43,558.52,404.19z"/>
<path class="st0" d="M551.65,416.77c-1.77,3.89-2.78,8.13-2.9,12.44c3.55,1.28,7.38,1.99,11.35,2.04l-0.02-12.01
	C557.16,419.16,554.3,418.31,551.65,416.77z"/>
<path class="st0" d="M544.65,384.49l2.85,1.82l0.72,5.73l6.18-15.26l2.48,2.93l3.72-10.04l3.54,11.17l2.59-5.77l2.85,15.2l3.18-7.6
	l2.61,2.51l1.25,13.9l3.52-6.57l4.37,20.53c1.34,1.41,2.55,2.96,3.63,4.61c4.55-5.89,7.27-13.27,7.27-21.28
	c0-19.23-15.64-34.87-34.87-34.87c-19.23,0-34.87,15.64-34.87,34.87c0,8.08,2.76,15.53,7.4,21.45c0.8-1.24,1.7-2.43,2.67-3.56
	L544.65,384.49z"/>
<path class="st0" d="M561.9,404.96c0.85,0.74,1.81,1.62,2.53,2.35c2.24,2.28,4.12,4.91,5.59,7.75c1.42-0.98,2.77-2.17,4.02-3.55
	c-2.74-2.37-5.87-4.26-9.16-5.54C564.02,405.64,562.91,405.27,561.9,404.96z"/>
<path class="st0" d="M565.24,405.05c3.4,1.31,6.63,3.27,9.46,5.71c0.62-0.73,1.2-1.52,1.76-2.34c-4.15-2.42-8.85-3.91-13.73-4.24
	C563.6,404.46,564.5,404.76,565.24,405.05z"/>
<path class="st0" d="M561.05,405.54l0.02,12.71c2.77-0.11,5.54-1.03,8.12-2.63c-1.44-2.79-3.27-5.36-5.47-7.6
	C562.97,407.25,561.93,406.3,561.05,405.54z"/>
<path class="st0" d="M557.8,407.76c-2.33,2.37-4.25,5.12-5.72,8.11c2.52,1.48,5.24,2.3,8.01,2.38l-0.02-12.6
	C559.28,406.33,558.44,407.11,557.8,407.76z"/>
<path class="st0" d="M559.33,404.97c-0.89,0.28-1.85,0.6-2.62,0.9c-3.52,1.36-6.77,3.4-9.6,5.94c1.28,1.39,2.66,2.57,4.12,3.53
	c1.51-3.04,3.49-5.85,5.86-8.27C557.75,406.39,558.58,405.63,559.33,404.97z"/>
<polygon class="st0" points="545.08,392.3 538.12,412.23 545.53,406.64 "/>
<polygon class="st0" points="551.34,394.41 555.19,380.9 555.87,381.66 556.7,394.41 555.8,398.04 554.06,395.17 552.25,396.07 "/>
<polygon class="st0" points="555.65,403.32 559.21,393.36 560.34,387.32 560.78,378.48 566.29,394.04 562.36,390.26 564.03,403.17 
	"/>
<polygon class="st0" points="569.08,399.55 568.78,391.39 566.89,390.04 "/>
<polygon class="st0" points="570.75,404.61 572.33,393.06 574.14,394.26 575.12,406.34 "/>
<polygon class="st0" points="576.78,402.79 579.29,399.17 578.99,407.32 578.16,407.17 577.63,406.49 "/>
<path class="st0" d="M541.33,363.31l-5.21,3.59l-1.37-2.4l0.84-0.58l-2.98-5.25l-0.83,0.58l-1.37-2.42l5.21-3.59l1.37,2.42
	l-0.84,0.58l2.98,5.23l0.83-0.57L541.33,363.31L541.33,363.31z M551.36,359.52l0.98-9.74l0.77-0.23l-0.67-2.74l-4.2,1.23l0.67,2.76
	l0.86-0.25l-0.43,5.36l-2.74-4.43l0.88-0.26l-0.67-2.74l-5.6,1.65l0.67,2.76l0.78-0.24l5.46,7.84L551.36,359.52L551.36,359.52z
	 M565.64,353.72l-0.23,2.32l0.93,0.11c0.6,0.06,1.04,0.04,1.32-0.11c0.26-0.14,0.43-0.42,0.47-0.84c0.04-0.4-0.05-0.72-0.26-0.93
	c-0.21-0.21-0.64-0.36-1.31-0.44L565.64,353.72L565.64,353.72z M566.05,349.42l-0.21,2.15l0.92,0.1c0.63,0.08,1.04,0.03,1.26-0.15
	c0.2-0.18,0.31-0.43,0.35-0.75c0.03-0.26-0.04-0.53-0.19-0.77c-0.15-0.24-0.6-0.4-1.36-0.49L566.05,349.42L566.05,349.42z
	 M566.15,358.74l-6.05-0.7l0.28-2.82l0.92,0.1l0.58-6.14l-0.93-0.11l0.28-2.83l6.54,0.77c1.28,0.14,2.28,0.34,2.96,0.59
	c0.68,0.24,1.2,0.64,1.55,1.2c0.34,0.55,0.48,1.18,0.42,1.86c-0.06,0.67-0.3,1.18-0.72,1.54c-0.43,0.36-0.92,0.59-1.48,0.68
	c0.74,0.34,1.28,0.79,1.64,1.36c0.36,0.58,0.5,1.2,0.44,1.86c-0.08,0.79-0.37,1.43-0.88,1.94c-0.52,0.5-1.18,0.78-2,0.86
	C568.86,358.97,567.69,358.92,566.15,358.74L566.15,358.74z M581.82,364.93l-2.91-1.85l1.17-9.8l-0.69-0.44l1.28-2.45l5.02,3.18
	l-1.3,2.47l-0.78-0.5l-0.92,5.26l3.76-3.45l-0.77-0.49l1.3-2.47l3.76,2.39l-1.3,2.47l-0.69-0.44L581.82,364.93z"/>
<polygon class="st0" points="609.31,382.96 610.83,386.85 608.19,387.88 607.89,387.12 602.13,389.38 602.44,390.17 599.8,391.21 
	597.42,385.15 601.11,382.01 596.24,382.16 593.88,376.14 596.53,375.11 596.84,375.89 602.59,373.63 602.28,372.82 604.92,371.79 
	606.97,377.02 604.33,378.07 604.01,377.26 597.85,379.68 607.85,379.25 608.44,380.76 600.88,387.18 606.97,384.79 606.67,384 "/>
<path class="st0" d="M607.08,400.54l-0.15,1.09l-2.23-0.31l0.68-4.78c1.28,0.19,2.23,0.4,2.83,0.67c0.58,0.24,1.13,0.65,1.69,1.26
	c0.54,0.58,0.91,1.25,1.08,1.99c0.18,0.75,0.21,1.52,0.1,2.33c-0.18,1.21-0.55,2.26-1.13,3.18c-0.57,0.93-1.38,1.59-2.45,1.99
	c-1.04,0.4-2.18,0.52-3.4,0.34c-1.82-0.26-3.22-1.02-4.19-2.28c-0.97-1.25-1.33-2.65-1.11-4.23c0.19-1.32,0.69-2.29,1.5-2.94
	l-0.82-0.11l0.36-2.55l4.11,0.57l-0.38,2.58c-0.53,0.15-0.96,0.39-1.27,0.7c-0.31,0.33-0.5,0.73-0.57,1.21
	c-0.1,0.68,0.08,1.21,0.52,1.6c0.44,0.38,1.3,0.67,2.59,0.84c1.3,0.19,2.19,0.15,2.71-0.11c0.52-0.26,0.82-0.72,0.91-1.35
	C608.61,401.26,608.14,400.69,607.08,400.54z"/>
<path class="st0" d="M596,418.91l2.42,2.45l0.92-1.7L596,418.91L596,418.91z M603.32,424.01l-2.03,3.75l-2.49-1.35l0.39-0.72
	l-4.49-4.72l-0.42,0.77l-2.5-1.35l3.67-6.82l2.5,1.35l-0.42,0.75l6.43,1.12l0.38-0.69l2.49,1.35l-2.67,4.96l-2.29-1.23l0.45-0.83
	l-1.51-0.35l-1.31,2.43l1.09,1.12l0.42-0.77L603.32,424.01z"/>
<polygon class="st0" points="595.77,432.92 590.92,436.69 589.18,434.45 589.96,433.84 586.16,428.95 585.38,429.56 583.63,427.32 
	588.49,423.54 590.24,425.8 589.46,426.4 593.24,431.28 594.02,430.68 "/>
<path class="st0" d="M572.37,436.88l-0.76,0.35l-1.21-2.57l4.98-2.37l1.22,2.58l-0.47,0.21l1.71,3.62c0.4,0.86,0.75,1.41,1.06,1.66
	c0.29,0.23,0.63,0.26,1.02,0.08c0.33-0.15,0.5-0.39,0.52-0.72c0.03-0.33-0.15-0.89-0.53-1.69l-1.82-3.88l-0.49,0.23l-1.21-2.57
	l3.66-1.72l1.21,2.57l-0.77,0.36l1.84,3.89c0.47,0.99,0.72,1.86,0.75,2.62c0.04,0.75-0.16,1.45-0.6,2.09c-0.44,0.64-1.11,1.17-2,1.6
	c-0.7,0.34-1.38,0.54-2.03,0.6c-0.65,0.09-1.23,0.01-1.74-0.21c-0.5-0.23-0.96-0.57-1.37-1.03c-0.4-0.44-0.86-1.2-1.36-2.28
	L572.37,436.88z"/>
<path class="st0" d="M543.31,434.63l-2.33,2.54l1.75,0.82L543.31,434.63L543.31,434.63z M538.61,442.2l-3.85-1.82l1.21-2.57
	l0.74,0.35l4.47-4.73l-0.78-0.36l1.21-2.58l7.01,3.31l-1.21,2.57l-0.79-0.36l-0.77,6.48l0.72,0.33l-1.22,2.58l-5.08-2.4l1.11-2.35
	l0.86,0.4l0.26-1.54l-2.49-1.17l-1.07,1.14l0.81,0.38L538.61,442.2z"/>
<path class="st0" d="M528.37,429.95l-0.77-0.78l1.6-1.57l3.37,3.43c-0.92,0.91-1.66,1.52-2.24,1.85c-0.54,0.31-1.22,0.5-2.03,0.58
	c-0.79,0.08-1.54-0.04-2.24-0.35c-0.7-0.31-1.33-0.75-1.91-1.33c-0.84-0.87-1.46-1.81-1.84-2.83c-0.39-1.02-0.42-2.06-0.09-3.16
	c0.33-1.08,0.92-2.05,1.79-2.91c1.32-1.28,2.78-1.94,4.35-1.94c1.59-0.01,2.93,0.55,4.04,1.69c0.93,0.94,1.41,1.94,1.42,2.97
	l0.59-0.58l1.82,1.86l-2.97,2.91l-1.81-1.86c0.2-0.52,0.28-0.99,0.2-1.45c-0.06-0.44-0.26-0.83-0.6-1.18
	c-0.48-0.49-1.01-0.67-1.59-0.55c-0.57,0.11-1.32,0.63-2.25,1.55c-0.93,0.91-1.45,1.65-1.55,2.21s0.08,1.08,0.53,1.53
	C526.88,430.73,527.6,430.7,528.37,429.95z"/>
<polygon class="st0" points="511.54,408.39 510.13,404.47 512.81,403.51 513.09,404.29 518.92,402.2 518.63,401.4 521.31,400.44 
	523.5,406.56 519.72,409.6 524.58,409.59 526.77,415.67 524.09,416.64 523.8,415.83 517.99,417.92 518.27,418.74 515.59,419.69 
	513.69,414.41 516.38,413.44 516.66,414.26 522.91,412.02 512.89,412.14 512.35,410.63 520.1,404.43 513.93,406.64 514.22,407.44 
	"/>
<polygon class="st0" points="509.88,392.59 510.35,386.05 513.18,386.26 513.1,387.38 519.27,387.83 519.36,386.66 522.19,386.86 
	521.43,397.45 517.53,397.16 517.73,394.31 518.8,394.39 518.98,391.99 517.16,391.86 517.02,393.71 514.61,393.53 514.75,391.68 
	512.8,391.55 512.71,392.79 "/>
<polygon class="st0" points="512.3,379.76 514.3,373.94 516.99,374.87 516.66,375.82 522.52,377.83 522.83,376.9 525.52,377.83 
	523.51,383.63 520.83,382.7 521.14,381.77 515.31,379.76 514.98,380.69 "/>
<path class="st0" d="M531.69,341.77c-0.6-1.04-1.47-1.43-2.6-1.18c0.63-0.74,0.69-1.56,0.18-2.45c-0.28-0.49-0.63-0.83-1.04-1.04
	c-0.42-0.21-0.81-0.28-1.18-0.19c-0.38,0.08-0.87,0.3-1.47,0.65l-2.43,1.4l4.63,8.04l2.47-1.42c1.07-0.63,1.66-1.26,1.79-1.93
	C532.14,342.99,532.03,342.36,531.69,341.77z M525.02,339.24l0.97-0.57c0.45-0.26,0.83-0.36,1.16-0.31
	c0.31,0.05,0.59,0.28,0.82,0.68c0.2,0.34,0.26,0.68,0.21,1.01c-0.08,0.33-0.4,0.67-0.99,1.01l-0.83,0.48L525.02,339.24z
	 M529.51,344.55l-1.07,0.62l-1.5-2.6l0.96-0.55c0.64-0.36,1.14-0.48,1.5-0.33c0.36,0.14,0.64,0.38,0.84,0.72
	C530.74,343.27,530.51,343.98,529.51,344.55z"/>
<polygon class="st0" points="530.51,334.83 534.28,343.32 539.19,341.13 538.67,339.98 535.16,341.54 533.99,338.89 536.7,337.68 
	536.19,336.56 533.49,337.75 532.41,335.34 535.85,333.8 535.35,332.68 530.51,334.83 "/>
<g>
	<path class="st0" d="M542.97,335.43c0.75-0.74,0.94-1.65,0.59-2.74c-0.26-0.82-0.69-1.36-1.28-1.65c-0.6-0.29-1.38-0.28-2.34,0.04
		l-2.65,0.87l2.87,8.81l1.46-0.47l-1.2-3.69l1.36-0.44l2.58,3.23l1.59-0.52L542.97,335.43z M542.13,334.33
		c-0.14,0.35-0.47,0.6-0.97,0.77l-1.12,0.36l-0.93-2.87l1.13-0.36c0.96-0.31,1.59-0.01,1.89,0.91
		C542.28,333.58,542.28,333.98,542.13,334.33z"/>
</g>
<path class="st0" d="M549.4,333.41l0.21,1.22l1.64-0.29c0.28,1.59-0.1,2.48-1.15,2.65c-1.26,0.23-2.09-0.83-2.5-3.16
	c-0.4-2.32,0-3.57,1.23-3.79c0.36-0.08,0.7-0.01,1.02,0.18c0.31,0.18,0.62,0.65,0.92,1.41l1.31-0.58c-0.65-1.8-1.8-2.55-3.44-2.26
	c-1.18,0.2-1.98,0.79-2.39,1.76c-0.42,0.98-0.49,2.21-0.23,3.7c0.25,1.42,0.73,2.49,1.46,3.22c0.72,0.73,1.59,0.99,2.62,0.82
	c0.99-0.18,1.66-0.73,1.98-1.65l0.4,1.12l0.81-0.14l-0.84-4.74L549.4,333.41L549.4,333.41z"/>
<polygon class="st0" points="554.17,328.24 559.31,327.88 559.4,329.11 555.8,329.36 555.99,332.13 558.87,331.93 558.95,333.15 
	556.07,333.35 556.35,337.38 554.83,337.49 554.17,328.24 "/>
<path class="st0" d="M561.32,327.8l1.48,0.1l-0.39,5.74c-0.05,0.65-0.05,1.12,0,1.43c0.04,0.31,0.18,0.57,0.42,0.75
	c0.23,0.2,0.54,0.31,0.96,0.34c0.39,0.03,0.69-0.03,0.92-0.16c0.23-0.13,0.4-0.33,0.5-0.59c0.11-0.26,0.2-0.79,0.25-1.59l0.4-5.71
	l1.37,0.1l-0.39,5.64c-0.06,0.91-0.18,1.6-0.34,2.08c-0.16,0.48-0.49,0.86-0.98,1.15c-0.49,0.29-1.13,0.4-1.91,0.35
	c-0.62-0.04-1.13-0.18-1.57-0.42c-0.43-0.23-0.74-0.58-0.94-1.04c-0.2-0.47-0.26-1.27-0.18-2.43L561.32,327.8L561.32,327.8z"/>
<path class="st0" d="M562.63,326.27c0.01-0.2,0.1-0.36,0.26-0.49c0.15-0.11,0.33-0.18,0.53-0.16c0.19,0.01,0.36,0.09,0.5,0.24
	c0.14,0.14,0.2,0.31,0.19,0.52s-0.11,0.36-0.26,0.48c-0.16,0.13-0.34,0.18-0.53,0.16c-0.18-0.01-0.34-0.09-0.49-0.23
	C562.68,326.64,562.62,326.48,562.63,326.27L562.63,326.27z"/>
<path class="st0" d="M564.78,326.42c0.03-0.19,0.1-0.35,0.26-0.48c0.15-0.14,0.33-0.19,0.53-0.18c0.2,0.01,0.36,0.1,0.5,0.24
	c0.14,0.15,0.2,0.31,0.19,0.52c-0.01,0.21-0.1,0.38-0.26,0.49c-0.16,0.11-0.34,0.16-0.53,0.15c-0.18-0.01-0.34-0.09-0.49-0.23
	C564.84,326.79,564.77,326.62,564.78,326.42L564.78,326.42z"/>
<polygon class="st0" points="569.91,328.57 571.42,328.85 570.76,332.62 573.45,333.1 574.12,329.31 575.63,329.58 574.02,338.71 
	572.51,338.45 573.22,334.38 570.53,333.9 569.81,337.97 568.3,337.7 569.91,328.57 "/>
<g>
	<path class="st0" d="M583.15,332.47c-0.31-0.59-0.96-1.03-1.91-1.35l-2.65-0.87l-2.87,8.82l1.46,0.48l1.2-3.69l1.37,0.45l0.19,4.13
		l1.57,0.52l-0.38-4.53c1.06-0.16,1.75-0.78,2.1-1.87C583.49,333.74,583.47,333.05,583.15,332.47z M581.81,334.08
		c-0.15,0.44-0.38,0.77-0.7,0.97s-0.74,0.21-1.23,0.05l-1.12-0.36l0.93-2.87l1.13,0.37C581.77,332.54,582.09,333.16,581.81,334.08z"
		/>
</g>
<polygon class="st0" points="586.52,333.06 582.75,341.53 587.66,343.72 588.17,342.57 584.66,341.01 585.84,338.36 588.55,339.57 
	589.05,338.43 586.35,337.23 587.43,334.81 590.88,336.34 591.38,335.23 586.52,333.06 "/>
<g>
	<path class="st0" d="M596.98,339.18c-0.2-0.64-0.74-1.2-1.62-1.69l-2.44-1.36l-4.49,8.12l1.35,0.74l1.87-3.38l1.26,0.69l-0.62,4.09
		l1.46,0.81l0.49-4.52c1.06,0.04,1.86-0.43,2.42-1.43C597.07,340.5,597.18,339.8,596.98,339.18z M595.34,340.5
		c-0.23,0.42-0.52,0.68-0.88,0.82c-0.35,0.13-0.76,0.08-1.22-0.19l-1.02-0.57l1.46-2.64l1.04,0.58
		C595.61,338.99,595.81,339.65,595.34,340.5z"/>
</g>
<polygon class="st0" points="605.86,356.84 602.18,353 603.06,352.16 605.69,354.88 607.59,353.04 605.54,350.9 606.42,350.05 
	608.48,352.17 610.57,350.16 607.9,347.4 608.81,346.52 612.54,350.4 "/>
<path class="st0" d="M616.7,364.43l-1.51-2.71l4.2-2.35l0.4,0.7l-0.93,0.75c0.98-0.01,1.71,0.44,2.21,1.32
	c0.5,0.91,0.53,1.82,0.09,2.74c-0.45,0.92-1.3,1.74-2.55,2.44c-1.33,0.74-2.52,1.07-3.57,0.99c-1.06-0.06-1.88-0.63-2.45-1.67
	c-0.82-1.45-0.48-2.78,0.99-3.99l0.98,1.04c-0.62,0.53-0.96,0.97-1.02,1.33c-0.08,0.35-0.01,0.69,0.16,1.02
	c0.6,1.09,1.94,1.07,3.99-0.09c2.06-1.16,2.78-2.29,2.16-3.4c-0.52-0.93-1.48-0.99-2.89-0.21l0.81,1.46L616.7,364.43z"/>
<polygon class="st0" points="610.62,362.78 609.52,361.35 612.97,354.85 607.66,358.92 606.88,357.9 614.24,352.26 615.12,353.39 
	611.31,360.63 617.2,356.11 617.98,357.13 "/>
<path class="st0" d="M616.33,373.73l-0.73-1.56l7.34-6.19l0.67,1.41l-1.86,1.51l1.16,2.47l2.34-0.48l0.63,1.33L616.33,373.73
	L616.33,373.73z M620.79,369.69l-3.4,2.77l4.29-0.87L620.79,369.69z"/>
<polygon class="st0" points="618.75,380.69 617.1,375.26 618.35,374.89 618.95,376.87 626.57,374.55 627.01,376.02 619.39,378.35 
	619.99,380.31 "/>
<polygon class="st0" points="620.36,387.39 620.02,385.61 626.03,381.38 619.47,382.61 619.23,381.35 628.34,379.63 628.6,381.04 
	621.94,385.78 629.23,384.41 629.47,385.67 "/>
<path class="st0" d="M624.85,388.05c1.57-0.11,2.79,0.09,3.64,0.6c0.84,0.5,1.31,1.31,1.38,2.38c0.06,1.08-0.28,1.94-1.04,2.57
	c-0.77,0.63-1.95,0.99-3.54,1.09c-1.57,0.11-2.78-0.09-3.62-0.6c-0.86-0.52-1.32-1.32-1.38-2.4c-0.08-1.07,0.26-1.93,1.04-2.54
	C622.08,388.51,623.27,388.15,624.85,388.05L624.85,388.05z M624.95,389.65c-1.09,0.08-1.95,0.26-2.57,0.57
	c-0.62,0.29-0.89,0.75-0.86,1.4c0.05,0.64,0.39,1.07,1.04,1.27c0.64,0.21,1.52,0.29,2.62,0.21c1.07-0.08,1.93-0.26,2.54-0.55
	c0.63-0.29,0.92-0.77,0.87-1.42c-0.04-0.63-0.38-1.04-1.02-1.26C626.95,389.65,626.07,389.57,624.95,389.65z"/>
<polygon class="st0" points="620.59,403.85 620.72,401.57 627.52,400.15 620.96,397.84 621.1,395.67 630.35,396.25 630.26,397.67 
	622.36,397.18 630.12,399.87 630.06,400.98 622.02,402.66 629.92,403.15 629.83,404.43 "/>
<polygon class="st0" points="618.9,413.87 620.14,408.7 621.34,408.98 620.45,412.66 623.03,413.29 623.72,410.41 624.93,410.7 
	624.22,413.58 627.04,414.26 627.95,410.52 629.17,410.82 627.91,416.04 "/>
<path class="st0" d="M616.38,420.49l0.86-1.9c0.42-0.93,0.91-1.6,1.47-2c0.58-0.4,1.25-0.6,2.03-0.6c0.77,0.01,1.55,0.19,2.33,0.54
	c0.83,0.37,1.51,0.83,2.04,1.37c0.54,0.54,0.88,1.17,1.04,1.86c0.16,0.7,0.04,1.54-0.4,2.5l-0.89,2.01L616.38,420.49L616.38,420.49z
	 M618.13,419.58l6.22,2.79l0.26-0.59c0.36-0.82,0.35-1.54-0.05-2.15c-0.4-0.62-1.07-1.15-2.01-1.56c-2.08-0.93-3.46-0.62-4.15,0.93
	L618.13,419.58z"/>
<polygon class="st0" points="610.96,429.12 613.87,424.66 614.9,425.33 612.83,428.5 615.05,429.95 616.67,427.46 617.7,428.14 
	616.09,430.61 618.52,432.2 620.61,428.99 621.67,429.67 618.74,434.18 "/>
<path class="st0" d="M606.59,434.59l1.3-1.62c0.63-0.79,1.28-1.31,1.94-1.56c0.65-0.25,1.36-0.28,2.1-0.08
	c0.74,0.2,1.46,0.57,2.13,1.09c0.7,0.57,1.25,1.18,1.64,1.84c0.38,0.67,0.55,1.36,0.54,2.08c-0.03,0.72-0.37,1.5-1.02,2.32
	l-1.38,1.72L606.59,434.59L606.59,434.59z M608.51,434.16l5.32,4.25l0.4-0.5c0.55-0.69,0.72-1.4,0.49-2.1
	c-0.24-0.69-0.75-1.37-1.56-2.01c-1.77-1.42-3.2-1.46-4.25-0.14L608.51,434.16z"/>
<rect x="607.34" y="435.04" transform="matrix(0.6609 -0.7505 0.7505 0.6609 -123.753 605.4797)" class="st0" width="1.54" height="9.27"/>
<path class="st0" d="M598.84,442.83l1.07-1.06l4.06,4.05c0.47,0.47,0.82,0.77,1.08,0.94c0.26,0.16,0.55,0.23,0.84,0.18
	c0.3-0.04,0.59-0.21,0.88-0.5c0.28-0.28,0.44-0.54,0.49-0.81c0.05-0.25,0.01-0.52-0.11-0.77c-0.13-0.25-0.48-0.65-1.03-1.22
	l-4.06-4.05l0.98-0.97l4,3.99c0.64,0.64,1.08,1.18,1.35,1.61c0.25,0.44,0.33,0.94,0.23,1.5c-0.1,0.55-0.44,1.12-0.99,1.67
	c-0.43,0.44-0.88,0.74-1.33,0.92c-0.47,0.18-0.94,0.19-1.42,0.04c-0.48-0.15-1.13-0.64-1.95-1.46L598.84,442.83z"/>
<path class="st0" d="M597.67,448.87l2.38-1.99l3.1,3.7l-0.63,0.52l-0.91-0.77c0.19,0.96-0.11,1.76-0.89,2.42
	c-0.81,0.67-1.7,0.87-2.68,0.59c-0.99-0.26-1.94-0.96-2.87-2.06c-0.97-1.16-1.52-2.27-1.65-3.32c-0.11-1.04,0.28-1.95,1.2-2.72
	c1.28-1.07,2.65-0.99,4.11,0.24l-0.84,1.16c-0.64-0.5-1.15-0.75-1.5-0.77c-0.36,0-0.69,0.13-0.98,0.36c-0.96,0.79-0.68,2.1,0.82,3.9
	c1.52,1.81,2.77,2.32,3.75,1.5c0.82-0.68,0.7-1.65-0.34-2.88l-1.27,1.07L597.67,448.87z"/>
<path class="st0" d="M572.71,455.43l1.64-0.49l5.05,8.17l-1.48,0.45l-1.23-2.06l-2.59,0.78l0.11,2.39l-1.4,0.43L572.71,455.43
	L572.71,455.43z M576.04,460.42l-2.24-3.76l0.23,4.37L576.04,460.42z"/>
<path class="st0" d="M563.36,456.53l2.08-0.25c1.01-0.11,1.82-0.04,2.48,0.25c0.64,0.28,1.16,0.75,1.55,1.42
	c0.39,0.67,0.64,1.42,0.74,2.28c0.1,0.89,0.06,1.71-0.13,2.45c-0.2,0.74-0.55,1.36-1.07,1.85c-0.52,0.5-1.3,0.82-2.35,0.94
	l-2.19,0.26L563.36,456.53L563.36,456.53z M565.03,457.57l0.82,6.77l0.63-0.08c0.89-0.1,1.5-0.49,1.82-1.15
	c0.33-0.67,0.43-1.51,0.3-2.53c-0.26-2.26-1.25-3.3-2.93-3.1L565.03,457.57z"/>
<rect x="559.65" y="457" class="st0" width="1.52" height="9.27"/>
<path class="st0" d="M551.43,456.2l1.5,0.15l-0.55,5.73c-0.06,0.64-0.06,1.11-0.03,1.42c0.04,0.31,0.16,0.57,0.39,0.77
	c0.23,0.2,0.54,0.33,0.96,0.36c0.38,0.04,0.69-0.01,0.92-0.14c0.24-0.13,0.4-0.31,0.53-0.58c0.11-0.25,0.2-0.78,0.28-1.57l0.55-5.7
	l1.37,0.13l-0.54,5.62c-0.09,0.91-0.21,1.6-0.39,2.06c-0.18,0.48-0.52,0.86-1.01,1.13c-0.5,0.28-1.15,0.38-1.93,0.3
	c-0.6-0.06-1.13-0.21-1.56-0.45c-0.43-0.25-0.73-0.6-0.92-1.07c-0.19-0.48-0.23-1.28-0.13-2.44L551.43,456.2z"/>
<path class="st0" d="M546.03,459.19l3.04,0.58l-0.91,4.74l-0.81-0.15l0.03-1.2c-0.63,0.74-1.45,1.02-2.44,0.83
	c-1.02-0.2-1.74-0.77-2.15-1.7s-0.49-2.11-0.21-3.52c0.29-1.5,0.79-2.62,1.54-3.37c0.73-0.77,1.69-1.03,2.86-0.81
	c1.64,0.31,2.44,1.43,2.4,3.33l-1.42,0.09c-0.01-0.82-0.13-1.37-0.35-1.65c-0.23-0.29-0.53-0.47-0.89-0.53
	c-1.23-0.24-2.06,0.79-2.5,3.11c-0.45,2.32-0.05,3.6,1.21,3.84c1.04,0.2,1.71-0.49,2.03-2.08l-1.64-0.31L546.03,459.19z"/>
<polygon class="st0" points="518.69,440.11 522.53,443.79 521.68,444.68 518.95,442.06 517.12,443.99 519.26,446.03 518.4,446.92 
	516.26,444.87 514.26,446.97 517.03,449.63 516.16,450.53 512.27,446.82 "/>
<path class="st0" d="M513.1,433.72l1.37,1.57c0.67,0.75,1.07,1.48,1.2,2.18c0.13,0.69,0.04,1.38-0.29,2.08
	c-0.33,0.7-0.82,1.33-1.47,1.9c-0.68,0.6-1.37,1.03-2.09,1.28c-0.72,0.26-1.43,0.31-2.14,0.18c-0.7-0.15-1.41-0.62-2.1-1.42
	l-1.45-1.66L513.1,433.72L513.1,433.72z M513.19,435.69l-5.12,4.49l0.42,0.48c0.59,0.68,1.25,0.96,1.98,0.86
	c0.73-0.1,1.48-0.5,2.26-1.18c1.71-1.5,2.01-2.88,0.88-4.16L513.19,435.69z"/>
<polygon class="st0" points="511.24,430.44 512.1,431.71 504.41,436.88 503.55,435.61 "/>
<path class="st0" d="M506.86,423.39l0.75,1.31l-5,2.87c-0.55,0.33-0.94,0.59-1.18,0.81c-0.23,0.2-0.36,0.47-0.39,0.77
	c-0.04,0.29,0.05,0.62,0.25,0.98c0.2,0.34,0.42,0.57,0.65,0.68c0.23,0.11,0.49,0.14,0.77,0.09c0.28-0.06,0.77-0.29,1.45-0.68
	l4.97-2.86l0.69,1.2l-4.91,2.82c-0.78,0.45-1.42,0.74-1.9,0.88c-0.49,0.13-0.99,0.08-1.51-0.18c-0.5-0.25-0.96-0.72-1.36-1.4
	c-0.3-0.53-0.48-1.04-0.53-1.53c-0.05-0.49,0.06-0.94,0.34-1.37c0.26-0.43,0.91-0.93,1.91-1.5L506.86,423.39z"/>
<path class="st0" d="M500.9,420.81l1.43,2.74l-4.28,2.24l-0.38-0.72l0.96-0.73c-0.98-0.03-1.7-0.49-2.18-1.38
	c-0.48-0.92-0.49-1.84-0.01-2.74c0.48-0.91,1.35-1.7,2.62-2.37c1.35-0.7,2.54-1.01,3.6-0.91c1.06,0.1,1.86,0.68,2.42,1.74
	c0.77,1.48,0.4,2.81-1.12,3.96l-0.94-1.07c0.63-0.52,0.98-0.94,1.06-1.3c0.09-0.35,0.04-0.7-0.14-1.03
	c-0.58-1.11-1.91-1.12-3.99-0.03c-2.1,1.09-2.84,2.21-2.25,3.35c0.49,0.94,1.46,1.03,2.89,0.28l-0.78-1.47L500.9,420.81z"/>
<polygon class="st0" points="501.06,404.3 501.33,406.09 495.14,410.07 501.75,409.11 501.94,410.38 492.76,411.7 492.56,410.28 
	499.41,405.84 492.07,406.9 491.89,405.61 "/>
<polygon class="st0" points="500.61,400.2 500.71,401.74 491.45,402.3 491.36,400.77 "/>
<path class="st0" d="M500.65,394.29L500.6,396l-9.35,2.18l0.05-1.56l2.34-0.49l0.09-2.72l-2.3-0.64l0.04-1.47L500.65,394.29
	L500.65,394.29z M494.85,395.86l4.29-0.92l-4.22-1.18L494.85,395.86z"/>
<polygon class="st0" points="501.23,385.35 500.38,390.95 499.1,390.77 499.4,388.71 491.52,387.53 491.75,386.02 499.63,387.19 
	499.93,385.17 "/>
<polygon class="st0" points="503.69,378.47 503.23,380.22 495.98,381.45 502.45,383.18 502.12,384.41 493.15,382.02 493.52,380.64 
	501.58,379.24 494.41,377.33 494.73,376.08 "/>
<path class="st0" d="M505.79,370.78l-0.49,1.42l-5.44-1.9c-0.6-0.21-1.06-0.33-1.37-0.36c-0.31-0.04-0.59,0.03-0.84,0.2
	c-0.25,0.16-0.44,0.44-0.58,0.83c-0.13,0.38-0.15,0.68-0.09,0.94c0.06,0.25,0.21,0.47,0.44,0.64c0.23,0.16,0.72,0.39,1.46,0.64
	l5.41,1.89l-0.45,1.31l-5.34-1.86c-0.86-0.3-1.5-0.59-1.91-0.87c-0.43-0.29-0.7-0.7-0.86-1.25c-0.15-0.55-0.09-1.2,0.16-1.94
	c0.2-0.58,0.48-1.06,0.82-1.41c0.34-0.36,0.75-0.58,1.26-0.64c0.5-0.08,1.3,0.08,2.39,0.47L505.79,370.78z"/>
<path class="st0" d="M505.96,361.17c1.4,0.75,2.33,1.57,2.77,2.45c0.45,0.88,0.42,1.8-0.09,2.74c-0.52,0.96-1.26,1.5-2.24,1.62
	c-0.99,0.13-2.18-0.19-3.59-0.93c-1.38-0.74-2.3-1.56-2.76-2.45c-0.44-0.88-0.42-1.81,0.1-2.77c0.5-0.94,1.26-1.48,2.24-1.6
	C503.38,360.11,504.56,360.43,505.96,361.17L505.96,361.17z M505.2,362.59c-0.97-0.52-1.8-0.81-2.48-0.88
	c-0.67-0.08-1.16,0.18-1.46,0.73c-0.3,0.57-0.24,1.11,0.2,1.64c0.44,0.52,1.15,1.04,2.11,1.56c0.94,0.5,1.76,0.81,2.44,0.88
	c0.69,0.09,1.18-0.16,1.5-0.74c0.3-0.55,0.23-1.08-0.2-1.61C506.89,363.65,506.18,363.12,505.2,362.59z"/>
<polygon class="st0" points="515.98,355.92 514.63,357.75 508.17,355.21 512.37,360.74 511.07,362.48 503.65,356.93 504.51,355.77 
	510.85,360.52 505.83,354.01 506.5,353.12 514.14,356.14 507.79,351.38 508.57,350.36 "/>
<path class="st0" d="M519.38,349.05c0.62,0,1.11-0.49,1.11-1.11s-0.49-1.12-1.11-1.12c-0.62,0-1.12,0.5-1.12,1.12
	S518.77,349.05,519.38,349.05z"/>
<path class="st0" d="M585.61,455.96c0.6,0,1.11-0.5,1.11-1.12c0-0.62-0.5-1.11-1.11-1.11c-0.62,0-1.12,0.49-1.12,1.11
	C584.49,455.45,584.99,455.96,585.61,455.96z"/>
<path class="st0" d="M533.69,455.49c0.62,0,1.11-0.5,1.11-1.12c0-0.6-0.49-1.11-1.11-1.11c-0.62,0-1.12,0.5-1.12,1.11
	C532.57,454.99,533.07,455.49,533.69,455.49z"/>
<path class="st0" d="M600.48,349.02c0.62,0,1.12-0.5,1.12-1.12s-0.5-1.11-1.12-1.11c-0.62,0-1.11,0.49-1.11,1.11
	C599.37,348.51,599.86,349.02,600.48,349.02z"/>
</svg>
