<?xml version="1.0" encoding="UTF-8"?>
<svg width="138px" height="95px" viewBox="0 0 138 95" version="1.1" xmlns="http://www.w3.org/2000/svg" xmlns:xlink="http://www.w3.org/1999/xlink">
    <!-- Generator: Sketch 48.2 (47327) - http://www.bohemiancoding.com/sketch -->
    <title>Group</title>
    <desc>Created with Sketch.</desc>
    <defs></defs>
    <g id="Logo_2" stroke="none" stroke-width="1" fill="none" fill-rule="evenodd" transform="translate(-21.000000, -10.000000)">
        <g id="Group" transform="translate(21.000000, 10.000000)">
            <path d="M67,70 L67,55 L73.5454545,55 L74.7827051,56.2236842 L74.7827051,62.9342105 L73.5454545,64.1578947 L74.7827051,70 L72.2882483,70 L71.0509978,64.1578947 L69.5343681,64.1578947 L69.5343681,70 L67,70 Z M71.9689579,61.7302632 L72.248337,61.4342105 L72.248337,57.7236842 L71.9689579,57.4473684 L69.5343681,57.4473684 L69.5343681,61.7302632 L71.9689579,61.7302632 Z M79.3725055,70 L79.3725055,55 L81.9068736,55 L81.9068736,70 L79.3725055,70 Z M86.6563193,70 L86.6563193,55 L93.9201774,55 L93.9201774,57.4276316 L89.1906874,57.4276316 L89.1906874,61.1578947 L92.7028825,61.1578947 L92.7028825,63.5855263 L89.1906874,63.5855263 L89.1906874,67.5723684 L93.9201774,67.5723684 L93.9201774,70 L86.6563193,70 Z M103.31929,59.3223684 L103.31929,57.7434211 L103.019956,57.4473684 L101.084257,57.4473684 L100.784922,57.7434211 L100.784922,60.8618421 L101.084257,61.1578947 L104.636364,61.1578947 L105.873614,62.3815789 L105.873614,68.7763158 L104.636364,70 L99.4878049,70 L98.2505543,68.7763158 L98.2505543,65.6776316 L100.784922,65.6776316 L100.784922,67.2763158 L101.084257,67.5723684 L103.019956,67.5723684 L103.31929,67.2763158 L103.31929,63.8815789 L103.019956,63.5855263 L99.4878049,63.5855263 L98.2505543,62.3618421 L98.2505543,56.2236842 L99.4878049,55 L104.636364,55 L105.873614,56.2236842 L105.873614,59.3223684 L103.31929,59.3223684 Z M110.48337,70 L110.48337,55 L117.747228,55 L117.747228,57.4276316 L113.017738,57.4276316 L113.017738,61.1578947 L116.529933,61.1578947 L116.529933,63.5855263 L113.017738,63.5855263 L113.017738,67.5723684 L117.747228,67.5723684 L117.747228,70 L110.48337,70 Z M122.217295,70 L122.217295,55 L128.762749,55 L130,56.2236842 L130,62.9342105 L128.762749,64.1578947 L130,70 L127.505543,70 L126.268293,64.1578947 L124.751663,64.1578947 L124.751663,70 L122.217295,70 Z M127.186253,61.7302632 L127.465632,61.4342105 L127.465632,57.7236842 L127.186253,57.4473684 L124.751663,57.4473684 L124.751663,61.7302632 L127.186253,61.7302632 Z" id="Rieser" fill="#FFFFFF"></path>
            <rect id="Rectangle" stroke="#FFFFFF" x="0.5" y="44.5" width="137" height="36" rx="3"></rect>
            <path d="M6,44.1707057 L6,44 L59,44 L59,81 L6,81 L6,80.8292943 C5.68722107,80.9398458 5.35063542,81 5,81 L3,81 C1.34314575,81 2.02906125e-16,79.6568542 0,78 L0,47 C-2.02906125e-16,45.3431458 1.34314575,44 3,44 L5,44 C5.35063542,44 5.68722107,44.0601542 6,44.1707057 Z M14.5162769,55 L8,55 L8,70 L14.5162769,70 L15.7670793,68.7763158 L15.7670793,63.5657895 L14.5162769,62.3421053 L15.7670793,61.1184211 L15.7670793,56.2236842 L14.5162769,55 Z M12.9225126,61.1578947 L10.5823017,61.1578947 L10.5823017,57.3881579 L12.9225126,57.3881579 L13.2049519,57.6842105 L13.2049519,60.8618421 L12.9225126,61.1578947 Z M12.9225126,63.5855263 L13.2049519,63.8618421 L13.2049519,67.2565789 L12.9225126,67.5526316 L10.5823017,67.5526316 L10.5823017,63.5855263 L12.9225126,63.5855263 Z M25.4557542,66.7631579 L26.1416781,70 L28.7643283,70 L25.1329665,55 L22.6313618,55 L19,70 L21.6226502,70 L22.308574,66.7631579 L25.4557542,66.7631579 Z M24.9513984,64.3355263 L22.8129298,64.3355263 L23.8821641,59.2828947 L24.9513984,64.3355263 Z M40.040807,70 L40.040807,67.5723684 L35.5823017,67.5723684 L35.5823017,55 L33,55 L33,70 L40.040807,70 Z M51.6863824,70 L51.6863824,67.5723684 L46.7033471,67.5723684 L51.6863824,57.4276316 L51.6863824,55 L44,55 L44,57.4276316 L48.9830353,57.4276316 L44,67.5723684 L44,70 L51.6863824,70 Z" id="Combined-Shape" fill="#FFFFFF"></path>
            <path d="M4.10838719,87.9484536 L4.70504355,88.5237113 L4.70504355,90.8247423 L4.10838719,91.4 L4.70504355,91.9752577 L4.70504355,94.4247423 L4.10838719,95 L1,95 L1,87.9484536 L4.10838719,87.9484536 Z M3.3481315,90.843299 L3.48286035,90.7041237 L3.48286035,89.2103093 L3.3481315,89.071134 L2.23180669,89.071134 L2.23180669,90.843299 L3.3481315,90.843299 Z M3.3481315,91.9845361 L2.23180669,91.9845361 L2.23180669,93.8494845 L3.3481315,93.8494845 L3.48286035,93.7103093 L3.48286035,92.114433 L3.3481315,91.9845361 Z M7.55634608,95 L7.55634608,87.9484536 L11.0592964,87.9484536 L11.0592964,89.0896907 L8.77852928,89.0896907 L8.77852928,90.843299 L10.4722635,90.843299 L10.4722635,91.9845361 L8.77852928,91.9845361 L8.77852928,93.8587629 L11.0592964,93.8587629 L11.0592964,95 L7.55634608,95 Z M13.833611,95 L13.833611,87.9484536 L16.9901156,87.9484536 L17.586772,88.5237113 L17.586772,91.6783505 L16.9901156,92.2536082 L17.586772,95 L16.3838357,95 L15.7871794,92.2536082 L15.0557942,92.2536082 L15.0557942,95 L13.833611,95 Z M16.2298599,91.1123711 L16.3645888,90.9731959 L16.3645888,89.228866 L16.2298599,89.0989691 L15.0557942,89.0989691 L15.0557942,91.1123711 L16.2298599,91.1123711 Z M20.4188275,94.4247423 L20.4188275,88.5237113 L21.0154839,87.9484536 L23.5657087,87.9484536 L24.162365,88.5237113 L24.162365,89.9804124 L22.9401818,89.9804124 L22.9401818,89.2103093 L22.805453,89.071134 L21.7949866,89.071134 L21.6506342,89.2103093 L21.6506342,93.7103093 L21.7949866,93.8494845 L22.805453,93.8494845 L22.9401818,93.7103093 L22.9401818,92.3 L22.3435255,92.3 L22.3435255,91.1402062 L24.162365,91.1402062 L24.162365,94.4247423 L23.5657087,95 L21.0154839,95 L20.4188275,94.4247423 Z M30.5166178,87.9484536 L30.5166178,89.0896907 L28.2358508,89.0896907 L28.2358508,90.8989691 L29.9199615,90.8989691 L29.9199615,92.0402062 L28.2358508,92.0402062 L28.2358508,95 L27.0136676,95 L27.0136676,87.9484536 L30.5166178,87.9484536 Z M34.5612331,86 L34.8403143,86.2783505 L34.8403143,86.9092784 L34.5612331,87.1783505 L33.9068358,87.1783505 L33.6277546,86.9092784 L33.6277546,86.2783505 L33.9068358,86 L34.5612331,86 Z M36.1779794,86 L36.4666841,86.2783505 L36.4666841,86.9092784 L36.1779794,87.1783505 L35.5235821,87.1783505 L35.2445009,86.9092784 L35.2445009,86.2783505 L35.5235821,86 L36.1779794,86 Z M36.8708706,94.4247423 L36.2742143,95 L33.8106009,95 L33.2139445,94.4247423 L33.2139445,87.9484536 L34.4361277,87.9484536 L34.4361277,93.728866 L34.5708566,93.8587629 L35.5139586,93.8587629 L35.6486874,93.728866 L35.6486874,87.9484536 L36.8708706,87.9484536 L36.8708706,94.4247423 Z M41.0020973,87.9484536 L41.0020973,90.8618557 L42.3782563,90.8618557 L42.3782563,87.9484536 L43.6004395,87.9484536 L43.6004395,95 L42.3782563,95 L42.3782563,92.0030928 L41.0020973,92.0030928 L41.0020973,95 L39.7799141,95 L39.7799141,87.9484536 L41.0020973,87.9484536 Z M46.509483,95 L46.509483,87.9484536 L49.6659876,87.9484536 L50.262644,88.5237113 L50.262644,91.6783505 L49.6659876,92.2536082 L50.262644,95 L49.0597078,95 L48.4630514,92.2536082 L47.7316662,92.2536082 L47.7316662,95 L46.509483,95 Z M48.9057319,91.1123711 L49.0404608,90.9731959 L49.0404608,89.228866 L48.9057319,89.0989691 L47.7316662,89.0989691 L47.7316662,91.1123711 L48.9057319,91.1123711 Z M53.0946996,95 L53.0946996,87.9484536 L56.5976498,87.9484536 L56.5976498,89.0896907 L54.3168828,89.0896907 L54.3168828,90.843299 L56.0106169,90.843299 L56.0106169,91.9845361 L54.3168828,91.9845361 L54.3168828,93.8587629 L56.5976498,93.8587629 L56.5976498,95 L53.0946996,95 Z M59.3719644,95 L59.3719644,87.9484536 L62.5284691,87.9484536 L63.1251254,88.5237113 L63.1251254,91.6783505 L62.5284691,92.2536082 L63.1251254,95 L61.9221892,95 L61.3255329,92.2536082 L60.5941476,92.2536082 L60.5941476,95 L59.3719644,95 Z M61.7682134,91.1123711 L61.9029422,90.9731959 L61.9029422,89.228866 L61.7682134,89.0989691 L60.5941476,89.0989691 L60.5941476,91.1123711 L61.7682134,91.1123711 Z M68.728746,93.4783505 L67.2274816,93.4783505 L66.900283,95 L65.6492293,95 L67.3814575,87.9484536 L68.5747702,87.9484536 L70.3069984,95 L69.0559447,95 L68.728746,93.4783505 Z M68.4881588,92.3371134 L67.9781138,89.9618557 L67.4680689,92.3371134 L68.4881588,92.3371134 Z M75.2850921,89.9804124 L75.2850921,89.2381443 L75.1407398,89.0989691 L74.2072613,89.0989691 L74.0629089,89.2381443 L74.0629089,90.7041237 L74.2072613,90.843299 L75.9202424,90.843299 L76.5168988,91.4185567 L76.5168988,94.4247423 L75.9202424,95 L73.4373821,95 L72.8407257,94.4247423 L72.8407257,92.9680412 L74.0629089,92.9680412 L74.0629089,93.7195876 L74.2072613,93.8587629 L75.1407398,93.8587629 L75.2850921,93.7195876 L75.2850921,92.1237113 L75.1407398,91.9845361 L73.4373821,91.9845361 L72.8407257,91.4092784 L72.8407257,88.5237113 L73.4373821,87.9484536 L75.9202424,87.9484536 L76.5168988,88.5237113 L76.5168988,89.9804124 L75.2850921,89.9804124 Z M79.3585779,95 L79.3585779,87.9484536 L82.466965,87.9484536 L83.0636214,88.5237113 L83.0636214,91.6783505 L82.466965,92.2536082 L80.580761,92.2536082 L80.580761,95 L79.3585779,95 Z M81.6874624,91.1123711 L81.8318147,90.9731959 L81.8318147,89.228866 L81.6874624,89.0989691 L80.580761,89.0989691 L80.580761,91.1123711 L81.6874624,91.1123711 Z M85.837936,95 L85.837936,87.9484536 L87.0601192,87.9484536 L87.0601192,95 L85.837936,95 Z M89.9691627,95 L89.9691627,87.9484536 L93.1256673,87.9484536 L93.7223237,88.5237113 L93.7223237,91.6783505 L93.1256673,92.2536082 L93.7223237,95 L92.5193875,95 L91.9227311,92.2536082 L91.1913459,92.2536082 L91.1913459,95 L89.9691627,95 Z M92.3654116,91.1123711 L92.5001405,90.9731959 L92.5001405,89.228866 L92.3654116,89.0989691 L91.1913459,89.0989691 L91.1913459,91.1123711 L92.3654116,91.1123711 Z M99.3259443,93.4783505 L97.8246799,93.4783505 L97.4974812,95 L96.2464276,95 L97.9786557,87.9484536 L99.1719685,87.9484536 L100.904197,95 L99.6531429,95 L99.3259443,93.4783505 Z M99.085357,92.3371134 L98.5753121,89.9618557 L98.0652671,92.3371134 L99.085357,92.3371134 Z M103.505288,95 L103.505288,87.9484536 L104.823706,87.9484536 L106.411582,92.2721649 L106.411582,87.9484536 L107.633766,87.9484536 L107.633766,95 L106.315347,95 L104.727472,90.6762887 L104.727472,95 L103.505288,95 Z M114.122747,89.0896907 L112.804329,89.0896907 L112.804329,95 L111.582146,95 L111.582146,89.0896907 L110.263728,89.0896907 L110.263728,87.9484536 L114.122747,87.9484536 L114.122747,89.0896907 Z M123.501525,89.9804124 L123.501525,89.2381443 L123.357173,89.0989691 L122.423694,89.0989691 L122.279342,89.2381443 L122.279342,90.7041237 L122.423694,90.843299 L124.136676,90.843299 L124.733332,91.4185567 L124.733332,94.4247423 L124.136676,95 L121.653815,95 L121.057159,94.4247423 L121.057159,92.9680412 L122.279342,92.9680412 L122.279342,93.7195876 L122.423694,93.8587629 L123.357173,93.8587629 L123.501525,93.7195876 L123.501525,92.1237113 L123.357173,91.9845361 L121.653815,91.9845361 L121.057159,91.4092784 L121.057159,88.5237113 L121.653815,87.9484536 L124.136676,87.9484536 L124.733332,88.5237113 L124.733332,89.9804124 L123.501525,89.9804124 Z M130.683398,87.9484536 L131.280055,88.5237113 L131.280055,90.8247423 L130.683398,91.4 L131.280055,91.9752577 L131.280055,94.4247423 L130.683398,95 L127.575011,95 L127.575011,87.9484536 L130.683398,87.9484536 Z M129.923143,90.843299 L130.057871,90.7041237 L130.057871,89.2103093 L129.923143,89.071134 L128.806818,89.071134 L128.806818,90.843299 L129.923143,90.843299 Z M129.923143,91.9845361 L128.806818,91.9845361 L128.806818,93.8494845 L129.923143,93.8494845 L130.057871,93.7103093 L130.057871,92.114433 L129.923143,91.9845361 Z M136.633464,95 L135.074459,95 L133.707924,87.9484536 L134.930107,87.9484536 L135.853962,93.1907216 L136.777817,87.9484536 L138,87.9484536 L136.633464,95 Z" id="Bergführeraspirant-s" fill="#FFFFFF"></path>
            <path d="M86.535835,44 L80.9152076,44 L72.9793351,12.4262633 L65.1351558,35.9338942 C64.3471959,38.2952719 61.0458466,38.4431553 60.0477311,36.1617846 L56.172652,27.3046015 L52.4931575,36.11954 C52.070606,37.1318434 51.0770728,37.7916155 49.9752237,37.7916155 L34.7263827,37.7916155 C33.2206431,37.7916155 32,36.5773329 32,35.0794394 C32,33.5815459 33.2206431,32.3672633 34.7263827,32.3672633 L48.1552406,32.3672633 L53.5957534,19.3334663 C54.5178509,17.1244041 57.6540153,17.0980009 58.6135646,19.2912217 L62.2044718,27.4988794 L70.7605476,1.85781927 C71.6204064,-0.719026729 75.331008,-0.57963004 75.9930533,2.05438954 L86.535835,44 Z M91.4911674,44 L94.3868906,34.3068259 C94.7306138,33.1562433 95.7937069,32.3672633 97.00031,32.3672633 L111.273617,32.3672633 C112.779357,32.3672633 114,33.5815459 114,35.0794394 C114,36.5773329 112.779357,37.7916155 111.273617,37.7916155 L99.0343077,37.7916155 L97.1796249,44 L91.4911674,44 Z" id="Combined-Shape" fill="#FFFFFF" fill-rule="nonzero"></path>
        </g>
    </g>
</svg>
